<?xml version="1.0" standalone="no"?>
<!DOCTYPE svg PUBLIC "-//W3C//DTD SVG 20010904//EN"
 "http://www.w3.org/TR/2001/REC-SVG-20010904/DTD/svg10.dtd">
<svg version="1.0" xmlns="http://www.w3.org/2000/svg"
 width="21600.000000pt" height="10800.000000pt" viewBox="0 0 21600.000000 10800.000000"
 preserveAspectRatio="xMidYMid meet">

<g transform="translate(0.000000,10800.000000) scale(0.100000,-0.100000)"
fill="#000000" stroke="none">
<path d="M0 54000 l0 -54000 21759 0 21760 0 45 73 c25 41 46 77 46 81 0 4 13
27 29 50 17 24 41 67 55 97 14 30 41 81 60 114 19 33 45 78 57 100 11 22 38
63 58 90 20 28 45 68 56 90 11 22 38 72 60 110 22 39 47 82 55 97 8 15 52 89
96 165 45 76 95 162 110 190 86 158 129 231 189 323 24 36 53 85 66 110 13 25
36 61 52 81 15 20 27 38 27 42 0 3 16 29 35 58 19 30 35 58 35 63 0 12 52 90
63 94 4 2 7 12 7 21 0 10 9 28 20 41 11 13 20 27 20 31 0 9 51 96 192 332 20
34 50 87 66 117 17 30 41 71 54 90 13 19 54 89 91 155 78 138 82 145 120 202
15 23 27 44 27 48 0 3 24 47 53 98 29 51 60 103 68 117 7 14 28 48 46 77 18
28 33 54 33 57 0 3 12 22 26 43 14 21 30 47 35 58 5 11 18 34 28 50 10 17 49
83 85 149 37 65 73 128 79 139 7 12 24 39 40 61 15 21 27 44 27 50 0 6 12 29
26 50 29 43 75 122 134 231 21 39 56 99 79 135 23 36 50 84 61 106 11 23 26
47 34 53 8 7 17 23 20 36 l6 23 322 4 c334 5 580 4 4433 -6 1260 -3 4211 -8
6560 -10 l4270 -5 22 -28 c13 -15 39 -59 59 -98 20 -38 45 -82 55 -96 10 -15
23 -37 28 -50 6 -13 35 -64 65 -114 57 -94 86 -143 153 -260 22 -38 71 -122
108 -185 37 -63 80 -137 95 -165 15 -27 44 -79 65 -115 21 -36 48 -83 60 -105
13 -22 39 -67 59 -100 19 -33 47 -82 62 -110 14 -27 53 -93 85 -147 33 -53 59
-98 59 -101 0 -3 31 -56 68 -119 90 -149 202 -344 202 -352 0 -3 26 -43 57
-89 54 -77 96 -148 165 -277 26 -48 47 -84 95 -165 7 -11 25 -42 41 -70 16
-27 68 -117 117 -200 105 -179 145 -246 165 -283 9 -15 33 -56 54 -92 22 -36
75 -128 118 -205 44 -77 86 -147 94 -156 8 -8 14 -20 14 -25 0 -6 21 -43 46
-84 26 -41 49 -82 52 -90 3 -8 20 -37 37 -65 38 -60 115 -195 115 -202 0 -3 8
-17 19 -31 18 -26 45 -72 101 -173 14 -25 37 -66 51 -90 14 -24 38 -65 53 -91
l27 -48 34647 0 34647 1 70 116 c74 123 137 235 181 318 14 28 37 64 50 82 13
17 24 35 24 39 0 3 26 50 57 103 31 53 74 125 94 161 21 36 54 92 74 125 33
55 59 100 165 285 21 36 59 101 85 145 26 44 61 105 77 135 17 30 38 66 46 80
9 14 32 54 52 90 20 36 74 128 120 205 45 77 94 160 108 185 14 25 34 59 44
75 10 17 21 37 25 45 4 8 28 52 55 97 26 45 48 86 48 91 0 5 9 17 20 27 11 10
20 22 20 27 0 6 36 73 81 150 45 78 90 157 101 176 11 20 35 60 54 89 19 29
34 56 34 60 0 3 15 29 34 57 18 28 43 68 55 89 11 20 31 54 42 75 12 20 35 62
52 92 16 30 48 87 71 125 22 39 48 83 56 98 8 15 48 85 89 155 41 70 82 141
91 157 9 17 32 55 51 85 19 30 71 120 116 200 44 80 90 161 101 180 12 19 46
82 78 140 31 58 65 117 75 131 l18 26 5323 -6 c7710 -9 7515 -9 7813 12 138
10 288 22 335 28 47 5 130 14 185 19 55 6 147 19 205 30 58 10 139 24 180 30
155 23 199 33 350 76 85 24 192 62 237 84 46 22 85 40 88 40 3 0 33 18 66 40
33 22 63 40 67 40 16 0 135 85 230 164 112 93 206 186 282 277 25 29 59 68 75
85 48 52 75 84 75 91 0 3 7 15 17 25 9 10 21 27 27 37 6 10 34 46 61 80 65 79
119 151 174 231 24 36 47 67 51 70 7 5 111 160 146 217 11 18 27 39 35 46 20
16 64 86 74 116 4 13 22 40 40 60 18 20 36 47 40 61 4 14 17 38 29 55 11 16
28 42 36 56 8 15 51 88 95 163 127 217 139 237 216 376 17 30 43 73 57 95 15
22 37 60 49 85 12 25 50 90 83 145 33 55 67 114 75 130 19 37 54 97 120 207
56 93 53 88 115 194 78 134 108 188 124 222 9 18 25 47 37 64 13 17 41 65 64
107 23 42 83 148 135 236 51 88 131 225 178 305 46 80 93 157 103 172 11 15
19 31 19 36 0 12 81 162 108 200 12 16 22 33 22 36 0 3 14 29 32 58 39 66 190
324 208 358 28 50 65 105 73 108 4 2 7 8 7 13 0 5 26 53 57 107 31 53 65 115
76 137 11 22 32 58 47 80 15 22 30 50 34 62 4 12 35 64 69 115 34 51 68 105
76 121 8 15 18 27 23 27 4 0 8 4 8 9 0 5 35 69 77 143 42 73 86 151 98 173 12
22 33 58 47 81 14 22 47 80 74 130 26 49 51 91 55 94 3 3 20 30 36 60 32 59
85 151 139 240 18 30 47 81 64 113 17 31 46 82 65 112 19 30 35 56 35 59 0 7
101 182 160 276 29 47 66 109 82 139 16 30 46 80 65 110 20 31 42 70 50 86 14
32 22 46 66 112 15 23 27 45 27 50 0 5 11 24 23 43 13 19 42 69 64 110 22 41
61 110 87 153 25 43 46 80 46 82 0 2 22 39 48 82 26 43 68 113 92 157 25 43
57 99 72 125 15 25 40 69 54 96 15 28 51 90 80 138 30 49 54 90 54 93 0 2 11
23 26 45 28 45 45 76 96 169 19 36 50 90 69 120 19 30 41 67 49 82 25 45 60
101 80 133 11 17 23 37 26 45 6 13 136 241 175 308 9 15 31 54 49 87 18 33 60
104 92 158 32 53 58 100 58 103 0 3 13 24 28 47 16 23 61 101 101 172 40 72
86 153 103 180 38 63 80 135 114 200 15 28 41 73 59 100 18 28 74 122 124 210
114 198 104 179 143 245 18 30 37 64 43 75 7 12 34 59 62 105 28 47 72 123 98
170 26 47 78 137 115 200 36 63 108 187 159 275 51 88 96 167 101 175 39 63
110 182 110 185 0 2 32 58 71 126 39 68 75 134 80 146 l8 22 6683 -1 c3676 0
7153 -3 7728 -7 l1044 -6 31 -56 c38 -71 90 -163 176 -309 37 -63 111 -191
163 -285 53 -93 122 -213 153 -265 55 -93 105 -180 145 -250 11 -19 70 -122
132 -228 112 -196 126 -220 205 -359 24 -43 53 -91 65 -108 11 -16 29 -46 38
-65 10 -19 29 -53 41 -75 13 -22 39 -67 57 -100 18 -33 51 -89 72 -124 21 -34
38 -64 38 -66 0 -2 18 -32 40 -66 22 -35 55 -93 74 -129 44 -85 55 -104 141
-248 66 -110 85 -145 85 -156 0 -8 6 -19 14 -25 8 -7 41 -58 73 -114 32 -56
63 -111 70 -122 7 -11 21 -36 31 -55 10 -19 38 -66 63 -105 25 -38 67 -110 94
-160 27 -49 63 -114 82 -143 18 -29 33 -54 33 -57 0 -2 27 -50 60 -105 34 -55
64 -108 67 -118 4 -9 14 -28 23 -42 26 -38 112 -185 164 -280 26 -47 72 -128
103 -180 31 -52 66 -113 78 -135 12 -22 35 -62 50 -90 15 -27 33 -57 40 -65
12 -14 85 -142 114 -198 7 -15 37 -67 66 -117 29 -49 65 -112 80 -140 15 -27
40 -68 54 -90 15 -22 30 -49 34 -59 4 -10 38 -71 76 -135 71 -119 76 -128 170
-294 75 -133 73 -130 102 -173 38 -58 89 -145 89 -151 0 -3 17 -33 39 -67 21
-34 50 -83 64 -111 15 -27 40 -72 57 -100 17 -27 44 -75 60 -105 47 -85 80
-141 115 -195 18 -27 51 -87 75 -132 23 -46 46 -85 51 -89 5 -3 18 -22 28 -42
50 -100 198 -358 227 -397 12 -16 31 -48 41 -70 27 -55 77 -144 140 -249 29
-49 53 -90 53 -92 0 -1 24 -42 54 -91 29 -48 63 -108 76 -133 12 -25 28 -52
35 -60 7 -8 32 -51 55 -95 24 -44 58 -104 77 -133 18 -29 33 -56 33 -60 0 -4
31 -58 70 -121 38 -62 70 -115 70 -118 0 -2 13 -23 29 -46 16 -23 55 -91 88
-152 33 -60 69 -126 81 -145 12 -19 42 -73 68 -120 26 -47 60 -104 76 -127 15
-23 28 -44 28 -48 0 -3 36 -66 80 -139 44 -74 80 -136 80 -139 0 -3 22 -41 48
-84 60 -99 171 -292 196 -341 10 -20 46 -84 81 -142 34 -58 72 -123 84 -145
12 -22 40 -69 61 -105 22 -36 48 -83 60 -105 23 -47 49 -92 75 -132 10 -15 43
-71 73 -123 30 -52 64 -111 75 -130 11 -19 29 -51 38 -70 10 -19 39 -66 64
-105 24 -38 52 -83 61 -100 9 -16 42 -68 73 -114 59 -89 104 -158 186 -285 52
-81 107 -160 180 -257 24 -31 49 -67 56 -80 7 -13 18 -28 24 -34 7 -5 70 -86
140 -180 70 -93 148 -195 174 -225 62 -73 252 -262 288 -285 15 -10 53 -40 83
-67 49 -42 206 -138 301 -181 33 -16 282 -100 384 -130 68 -20 275 -54 475
-78 52 -6 114 -15 137 -20 23 -5 62 -9 87 -9 24 0 66 -5 93 -10 26 -6 154 -18
283 -26 209 -15 938 -17 6703 -24 3558 -5 6478 -11 6490 -14 15 -4 36 -33 67
-92 25 -48 57 -103 73 -122 15 -19 27 -39 27 -44 0 -5 19 -41 42 -81 22 -40
74 -130 114 -202 41 -71 78 -137 83 -145 5 -8 49 -82 97 -165 48 -82 102 -175
120 -207 19 -31 34 -59 34 -64 0 -4 11 -21 24 -38 13 -17 37 -59 54 -93 18
-34 36 -64 41 -67 5 -4 21 -30 36 -59 14 -28 38 -73 53 -99 15 -26 47 -82 71
-125 38 -68 133 -229 161 -273 5 -8 28 -49 51 -90 23 -41 56 -100 74 -130 68
-115 224 -387 247 -430 14 -25 49 -85 78 -135 30 -49 78 -133 108 -185 29 -52
67 -117 83 -144 17 -27 46 -78 65 -115 20 -36 42 -73 49 -81 7 -8 27 -44 45
-80 18 -36 45 -83 60 -105 24 -35 76 -126 173 -305 16 -30 35 -61 41 -69 6 -7
25 -38 41 -67 17 -30 52 -93 79 -141 27 -49 64 -110 81 -138 18 -27 47 -77 65
-110 18 -33 44 -78 56 -100 13 -22 37 -66 54 -97 l30 -58 8280 0 8280 0 0
54000 0 54000 -41948 0 -41948 0 -27 -52 c-15 -29 -43 -78 -62 -108 -19 -30
-38 -62 -41 -70 -4 -8 -26 -46 -49 -85 -24 -38 -54 -92 -69 -120 -15 -27 -45
-79 -67 -115 -22 -36 -47 -78 -55 -95 -8 -16 -30 -55 -50 -85 -19 -30 -39 -64
-45 -75 -5 -11 -15 -29 -22 -40 -7 -11 -32 -56 -56 -100 -25 -44 -48 -82 -51
-85 -4 -3 -15 -21 -25 -40 -10 -19 -37 -66 -60 -105 -23 -38 -49 -82 -56 -96
-60 -113 -82 -152 -97 -167 -24 -24 -84 -122 -111 -180 -6 -13 -28 -49 -49
-80 -21 -31 -52 -82 -68 -112 -16 -30 -46 -82 -66 -114 -21 -33 -38 -63 -38
-69 0 -5 -9 -21 -19 -36 -38 -53 -161 -286 -292 -551 -191 -387 -219 -446
-219 -456 0 -5 -16 -47 -35 -92 -51 -120 -155 -421 -155 -448 0 -5 -9 -29 -20
-52 -11 -22 -20 -46 -20 -51 0 -6 -11 -50 -25 -97 -14 -48 -28 -119 -31 -158
-3 -39 -9 -83 -14 -97 l-8 -26 197 -22 c108 -13 229 -25 268 -28 l73 -6 -4
-199 c-2 -110 -6 -201 -9 -204 -2 -3 -80 -9 -173 -14 -93 -5 -211 -13 -262
-16 l-93 -7 5 -26 c3 -14 8 -57 11 -96 4 -38 14 -95 22 -125 8 -30 18 -68 22
-85 11 -42 62 -206 72 -230 10 -24 41 -113 74 -212 14 -40 29 -81 34 -90 6
-10 19 -45 30 -78 19 -58 41 -109 122 -283 21 -46 39 -89 40 -95 0 -7 9 -25
19 -42 10 -16 61 -114 113 -216 52 -102 115 -221 141 -266 25 -44 46 -82 46
-85 0 -4 16 -29 35 -58 19 -29 35 -56 35 -62 0 -5 15 -33 33 -61 75 -118 86
-136 102 -173 9 -21 22 -46 30 -54 8 -9 25 -36 38 -61 23 -43 69 -122 133
-229 18 -30 42 -74 53 -96 11 -23 43 -79 71 -124 28 -46 59 -99 69 -119 48
-94 124 -238 149 -280 15 -25 34 -58 42 -73 8 -15 39 -72 69 -125 30 -54 60
-107 66 -118 6 -11 24 -40 40 -65 28 -44 63 -103 135 -230 20 -36 61 -108 91
-160 30 -52 60 -106 67 -120 7 -14 28 -50 47 -80 19 -30 47 -80 63 -110 16
-30 50 -90 75 -133 26 -43 47 -82 48 -85 0 -4 27 -50 59 -102 33 -52 82 -138
111 -190 28 -52 64 -114 79 -137 15 -22 31 -51 35 -63 4 -12 29 -58 57 -103
28 -45 61 -104 75 -132 14 -27 31 -57 38 -65 7 -8 32 -51 55 -95 23 -44 69
-123 101 -177 33 -53 59 -99 59 -102 0 -4 25 -48 56 -99 31 -51 67 -110 79
-132 12 -22 55 -100 96 -173 41 -73 84 -151 96 -175 13 -23 30 -52 38 -63 9
-12 26 -40 38 -63 12 -23 47 -83 77 -134 60 -101 70 -118 118 -204 17 -32 36
-65 42 -73 46 -71 148 -253 161 -286 9 -22 29 -61 45 -85 17 -24 50 -78 74
-119 24 -41 61 -103 82 -136 21 -34 47 -85 58 -113 18 -51 61 -131 85 -161 7
-8 31 -51 55 -95 23 -44 57 -102 75 -130 19 -27 39 -63 46 -80 7 -16 36 -68
64 -114 27 -46 67 -115 89 -155 21 -39 55 -99 76 -133 21 -34 48 -81 59 -105
12 -24 34 -63 51 -88 16 -25 41 -65 55 -90 14 -25 44 -74 65 -110 22 -36 48
-84 59 -108 11 -23 45 -83 76 -133 31 -50 75 -127 98 -172 22 -45 44 -84 49
-87 4 -3 33 -53 64 -110 31 -58 69 -123 84 -145 15 -22 30 -50 34 -63 4 -12
18 -34 30 -50 13 -15 47 -72 76 -127 29 -55 58 -107 65 -115 7 -8 39 -63 71
-123 33 -59 71 -129 86 -155 15 -26 42 -74 60 -106 60 -109 73 -131 102 -176
16 -24 40 -65 53 -90 13 -25 37 -65 53 -90 17 -25 44 -74 61 -110 17 -36 38
-73 47 -83 18 -21 72 -111 107 -182 14 -27 35 -66 46 -85 12 -19 37 -64 57
-100 19 -36 54 -96 77 -135 111 -186 152 -257 191 -330 15 -27 48 -84 73 -125
26 -41 50 -83 53 -92 4 -9 19 -36 34 -60 15 -24 38 -61 50 -83 47 -88 106
-192 129 -230 14 -22 44 -74 67 -115 23 -41 64 -111 90 -154 26 -44 48 -85 48
-93 0 -7 14 -35 30 -61 17 -27 30 -56 30 -63 0 -8 -34 -70 -76 -139 -42 -69
-94 -159 -116 -200 -23 -41 -62 -111 -89 -155 -26 -44 -60 -103 -76 -132 -15
-29 -62 -110 -105 -180 -42 -70 -82 -141 -89 -158 -8 -16 -16 -32 -19 -35 -4
-3 -22 -32 -41 -65 -19 -33 -39 -69 -46 -80 -6 -11 -20 -36 -31 -55 -27 -51
-152 -270 -171 -302 -9 -14 -46 -78 -83 -142 -38 -64 -98 -168 -135 -231 -38
-63 -77 -132 -88 -153 -11 -21 -30 -52 -42 -69 -13 -17 -23 -34 -23 -39 0 -4
-29 -55 -64 -113 -35 -58 -79 -133 -97 -166 -63 -115 -74 -134 -150 -262 -43
-70 -92 -155 -109 -188 -18 -33 -40 -69 -49 -80 -9 -11 -25 -38 -36 -60 -10
-22 -27 -51 -36 -65 -9 -14 -32 -54 -51 -90 -45 -83 -66 -120 -116 -203 -23
-37 -42 -70 -42 -73 0 -3 -22 -42 -49 -87 -27 -45 -93 -158 -148 -252 -55 -93
-109 -186 -121 -205 -12 -19 -37 -64 -55 -100 -42 -80 -113 -205 -141 -245
-29 -42 -126 -215 -126 -225 0 -4 -6 -13 -14 -19 -8 -7 -22 -26 -31 -44 -9
-18 -34 -61 -55 -97 -21 -36 -62 -107 -92 -159 -29 -52 -64 -113 -78 -137 -14
-23 -52 -90 -85 -149 -33 -58 -69 -121 -80 -140 -11 -18 -48 -82 -83 -142 -34
-59 -81 -139 -104 -178 -22 -38 -52 -90 -65 -115 -14 -24 -33 -56 -42 -70 -10
-14 -25 -38 -33 -55 -9 -16 -30 -55 -47 -85 -17 -30 -35 -66 -41 -80 -6 -13
-17 -31 -23 -38 -7 -8 -32 -51 -57 -97 -61 -112 -116 -207 -165 -285 -39 -61
-90 -150 -122 -212 -8 -15 -19 -30 -24 -34 -6 -3 -19 -25 -29 -48 -11 -22 -33
-66 -51 -96 -17 -30 -41 -73 -52 -95 -12 -22 -36 -60 -53 -85 -16 -25 -33 -53
-37 -63 -4 -10 -39 -73 -79 -140 -39 -67 -95 -162 -123 -212 -29 -49 -87 -151
-130 -225 -43 -74 -117 -205 -165 -290 -48 -85 -121 -211 -162 -280 -41 -69
-98 -168 -128 -220 -29 -52 -66 -114 -82 -137 -15 -23 -50 -82 -76 -130 -63
-118 -160 -281 -173 -288 -5 -4 -19 -24 -32 -47 -29 -52 -44 -79 -94 -163 -39
-67 -165 -288 -188 -330 -12 -23 -133 -235 -153 -268 -7 -12 -28 -46 -45 -74
-18 -29 -83 -142 -146 -250 -199 -346 -246 -427 -271 -468 -14 -23 -30 -50
-37 -60 -35 -58 -173 -303 -218 -388 -29 -53 -57 -103 -63 -110 -5 -6 -56 -93
-112 -192 -102 -177 -211 -365 -230 -395 -5 -8 -16 -28 -23 -45 -8 -16 -31
-57 -52 -90 -22 -33 -52 -85 -68 -115 -16 -30 -36 -62 -43 -71 -8 -8 -14 -18
-14 -22 0 -3 -18 -34 -40 -68 -22 -34 -40 -66 -40 -71 0 -5 -15 -33 -34 -61
-18 -29 -71 -119 -118 -202 -47 -82 -94 -164 -104 -181 -18 -29 -135 -233
-162 -279 -6 -11 -31 -55 -56 -97 -25 -43 -46 -80 -46 -83 0 -2 -15 -29 -34
-58 -36 -56 -60 -98 -92 -157 -11 -19 -20 -37 -22 -39 -1 -3 -26 -6 -55 -8
-86 -4 -93 -9 -174 -110 -43 -54 -85 -105 -94 -114 -14 -14 -46 -16 -248 -16
-127 0 -231 4 -231 9 0 8 5 20 34 75 9 17 16 40 16 51 0 12 4 24 10 27 6 3 10
22 10 41 l0 34 -57 0 c-90 1 -6295 -1 -9133 -3 -1405 0 -3224 1 -4042 2
l-1487 4 -52 91 c-28 50 -63 114 -79 141 -15 28 -41 73 -58 100 -17 28 -67
113 -110 190 -44 77 -101 177 -128 222 -79 134 -103 176 -120 213 -9 19 -26
49 -38 65 -12 17 -27 41 -34 55 -6 14 -36 66 -66 115 -30 50 -64 108 -75 131
-11 23 -42 77 -69 120 -27 43 -75 126 -107 184 -32 58 -78 138 -103 178 -24
39 -54 90 -66 112 -58 110 -123 221 -156 270 -20 30 -47 73 -59 95 -11 22 -32
58 -46 80 -14 22 -33 56 -43 75 -9 19 -37 69 -62 110 -25 41 -53 91 -63 110
-10 19 -28 52 -40 72 -12 20 -54 92 -94 160 -39 68 -79 137 -90 154 -64 110
-92 159 -188 329 -60 105 -117 206 -128 225 -12 19 -32 56 -46 81 -14 26 -48
84 -76 130 -68 112 -101 170 -159 275 -27 49 -57 100 -66 114 -10 14 -41 67
-69 119 -29 51 -57 103 -64 115 -7 11 -18 28 -24 37 -7 8 -32 51 -55 95 -22
43 -47 84 -54 91 -7 7 -16 23 -20 36 -3 12 -14 33 -24 47 -9 14 -28 45 -42 70
-14 25 -57 97 -97 162 -39 64 -71 119 -71 123 0 3 -21 41 -47 83 -25 42 -60
102 -76 132 -17 30 -38 66 -47 80 -10 14 -39 66 -65 115 -27 50 -60 108 -73
130 -27 42 -57 93 -152 260 -32 55 -96 167 -144 249 -47 82 -86 152 -86 155 0
4 -11 23 -24 42 -14 20 -37 58 -52 85 -15 27 -35 63 -45 79 -10 17 -31 53 -47
80 -31 55 -51 89 -105 180 -20 33 -61 105 -92 160 -31 55 -65 116 -77 135 -11
19 -31 55 -45 80 -13 25 -38 68 -55 95 -28 46 -46 77 -101 175 -11 19 -27 46
-36 60 -9 14 -24 41 -34 60 -9 19 -36 64 -59 100 -22 36 -95 160 -161 275 -65
116 -134 235 -153 266 -18 30 -45 78 -59 105 -14 27 -34 61 -43 75 -9 15 -30
48 -46 75 -98 167 -138 235 -165 284 -17 30 -42 75 -56 100 -14 25 -38 68 -54
95 -15 28 -45 79 -66 115 -21 36 -54 94 -74 130 -53 94 -73 128 -97 164 -37
54 -264 435 -264 443 0 3 -24 46 -54 97 -54 93 -154 266 -187 323 -10 17 -29
50 -43 72 -15 22 -26 45 -26 51 0 6 -5 16 -11 23 -6 7 -20 29 -32 49 -110 187
-157 269 -157 274 0 3 -11 20 -24 37 -13 18 -37 59 -54 92 -17 33 -46 83 -64
112 -18 28 -50 82 -71 120 -21 37 -56 97 -78 133 -22 36 -52 88 -65 115 -14
28 -39 73 -56 100 -17 28 -40 66 -51 85 -10 19 -40 70 -66 114 -25 43 -59 104
-76 135 -16 31 -39 70 -50 86 -12 17 -26 41 -33 55 -6 14 -16 32 -21 40 -28
45 -101 171 -101 175 0 3 -16 29 -35 60 -20 30 -39 63 -42 73 -4 9 -22 41 -40
70 -19 29 -48 78 -65 109 -17 31 -42 72 -54 91 -13 19 -24 39 -24 45 0 6 -10
24 -23 41 -13 17 -45 70 -70 118 -51 93 -61 99 -99 53 -9 -11 -36 -42 -58 -70
-22 -27 -49 -60 -60 -72 l-18 -23 -31 42 c-17 23 -31 50 -31 59 0 10 -5 21
-11 25 -6 3 -18 21 -25 38 -8 17 -28 49 -44 71 -16 22 -29 46 -30 53 0 14 -37
72 -53 83 -5 4 -6 22 -2 40 8 36 68 192 85 221 5 10 10 24 10 32 0 8 7 19 16
24 14 8 10 18 -25 76 -23 36 -41 74 -41 83 0 9 14 40 30 70 34 59 37 85 15
127 -8 15 -15 33 -15 38 0 6 -11 36 -24 67 -13 31 -33 78 -44 105 l-19 48 48
83 c27 46 49 85 49 88 0 8 129 220 141 232 6 5 9 4 9 -5 0 -8 16 -30 35 -49
19 -19 35 -39 35 -45 0 -7 16 -27 35 -46 19 -19 35 -40 35 -47 0 -19 40 -16
47 5 4 9 39 71 78 137 39 66 89 152 110 190 20 39 43 77 50 85 7 8 19 29 27
45 8 17 49 90 91 164 43 73 77 136 77 139 0 3 6 13 14 21 8 9 27 41 43 71 16
30 39 72 51 93 29 49 46 79 127 222 37 66 88 152 111 191 24 40 44 75 44 79 0
3 14 26 31 51 16 24 37 61 46 81 8 21 28 56 44 80 16 23 29 45 29 49 0 6 71
128 125 214 12 19 39 64 59 100 20 36 41 72 46 80 10 16 83 148 133 240 17 30
43 74 59 97 15 23 32 52 37 65 5 13 34 66 65 116 31 51 56 94 56 96 0 2 55 97
122 212 159 273 193 336 262 474 32 63 62 120 66 125 4 6 20 33 35 60 58 105
148 261 171 295 12 19 40 67 61 106 21 39 54 97 73 128 19 32 42 70 50 85 41
74 178 313 206 361 19 30 52 89 74 130 23 41 52 93 64 115 13 22 83 144 156
270 73 127 140 244 150 260 9 17 31 53 48 80 17 28 43 73 57 100 14 28 33 62
43 77 32 51 154 263 199 347 25 46 53 98 63 115 42 70 106 179 120 204 8 15
42 74 74 132 33 58 71 125 86 150 15 25 42 72 60 105 18 33 39 67 46 75 6 8
35 58 64 110 29 52 69 124 90 160 21 36 46 80 54 98 9 18 24 45 35 60 10 15
31 50 47 77 15 28 35 64 45 80 10 17 40 68 66 114 26 47 55 96 63 110 9 14 42
71 74 125 33 54 71 122 85 150 15 28 51 92 80 141 30 50 101 173 159 275 58
102 113 199 123 215 39 65 109 193 109 199 0 8 117 216 175 311 24 39 58 99
77 135 47 86 147 262 159 276 5 6 20 31 33 55 36 68 74 134 112 197 18 31 34
61 34 66 0 6 9 19 19 30 11 12 40 62 66 111 26 50 51 95 55 100 4 6 22 35 39
65 34 59 99 171 144 248 15 26 33 58 39 72 7 14 22 39 35 55 12 17 32 57 45
90 12 33 34 78 49 100 14 22 32 56 39 75 8 19 47 104 87 189 40 84 73 156 73
160 0 3 9 24 20 46 87 178 95 198 197 495 133 390 136 405 152 695 11 205 -6
507 -34 610 -10 33 -24 85 -31 115 -24 89 -30 110 -64 205 -17 50 -35 104 -40
120 -11 38 -62 167 -106 265 -19 42 -34 80 -34 85 0 13 -23 60 -211 442 -93
187 -169 345 -169 351 0 5 -9 17 -20 27 -11 10 -20 22 -20 26 0 5 -20 39 -45
76 -25 37 -45 71 -45 76 0 4 -11 23 -24 40 -13 18 -34 52 -47 75 -13 24 -31
56 -39 70 -9 15 -33 59 -55 97 -21 39 -46 81 -55 95 -18 27 -74 127 -98 175
-8 17 -25 44 -37 60 -12 17 -34 53 -49 80 -14 28 -31 57 -36 65 -14 21 -119
206 -146 257 -12 23 -31 55 -43 71 -11 17 -21 34 -21 39 0 7 -57 105 -100 173
-6 8 -21 35 -35 60 -14 25 -40 70 -58 101 -18 31 -49 87 -70 125 -22 38 -73
127 -115 197 -43 71 -96 163 -119 205 l-42 77 -3240 3 -3241 2 50 -84 c28 -47
50 -88 50 -91 0 -3 10 -21 23 -38 13 -18 32 -50 43 -72 10 -22 28 -53 39 -70
28 -42 72 -121 100 -181 13 -28 41 -80 63 -115 21 -35 54 -91 72 -124 18 -33
42 -76 53 -95 11 -19 25 -44 31 -55 6 -11 19 -31 27 -45 9 -14 32 -54 51 -90
20 -36 57 -101 82 -145 26 -44 51 -87 56 -95 5 -8 27 -49 51 -90 62 -112 76
-135 103 -179 15 -22 26 -43 26 -47 0 -3 8 -18 18 -32 11 -15 36 -58 57 -97
21 -38 46 -81 55 -95 10 -14 29 -47 44 -75 29 -53 55 -99 126 -220 51 -87 101
-173 150 -260 18 -33 43 -76 55 -95 26 -42 74 -129 106 -190 12 -25 35 -63 49
-85 15 -22 38 -60 51 -84 13 -24 29 -51 34 -60 6 -9 23 -38 38 -66 48 -87 90
-160 167 -290 41 -69 81 -138 89 -153 7 -15 30 -54 51 -87 20 -33 58 -98 84
-145 25 -47 64 -114 86 -150 22 -36 43 -72 46 -80 14 -29 116 -204 140 -239
13 -20 24 -39 24 -43 0 -4 16 -34 35 -67 19 -32 35 -67 35 -77 0 -9 -27 -65
-61 -123 -33 -58 -64 -113 -69 -121 -4 -8 -22 -40 -40 -70 -18 -30 -48 -84
-68 -120 -19 -36 -43 -74 -53 -86 -11 -11 -19 -26 -19 -32 0 -6 -15 -35 -33
-64 -19 -29 -47 -78 -64 -108 -17 -30 -47 -84 -68 -120 -21 -36 -55 -94 -75
-130 -65 -114 -105 -183 -148 -254 -23 -37 -42 -69 -42 -71 0 -1 -38 -67 -83
-146 -81 -140 -113 -195 -164 -289 -14 -25 -35 -61 -48 -80 -12 -19 -29 -47
-36 -61 -22 -43 -170 -299 -204 -354 -17 -27 -44 -75 -59 -106 -15 -31 -38
-67 -49 -81 -12 -13 -30 -37 -40 -53 -17 -29 -119 -205 -137 -235 -4 -8 -27
-46 -49 -83 -23 -38 -41 -72 -41 -76 0 -5 -11 -24 -24 -43 -12 -19 -36 -59
-53 -89 -47 -85 -57 -103 -70 -119 -6 -8 -28 -46 -48 -85 -43 -82 -108 -195
-257 -447 -60 -100 -108 -183 -108 -185 0 -1 -17 -31 -38 -65 -21 -35 -41 -70
-45 -78 -4 -8 -15 -28 -26 -45 -34 -56 -203 -349 -268 -465 -36 -63 -69 -120
-73 -125 -5 -6 -67 -113 -139 -238 -72 -125 -139 -240 -151 -254 -11 -14 -20
-29 -20 -34 0 -5 -34 -65 -75 -134 -41 -70 -75 -128 -75 -129 0 -2 -44 -77
-97 -167 -87 -148 -152 -261 -237 -413 -16 -28 -59 -103 -96 -166 -37 -63 -93
-160 -125 -215 -32 -55 -75 -127 -95 -160 -80 -130 -95 -165 -82 -186 7 -10
12 -27 12 -37 0 -10 4 -22 9 -28 5 -5 16 -33 26 -61 9 -29 21 -55 26 -58 5 -4
9 -19 9 -36 0 -16 5 -29 10 -29 12 0 5 -14 -62 -132 -27 -48 -36 -57 -53 -51
-11 3 -70 6 -131 6 -130 0 -126 -2 -206 107 -66 89 -114 134 -134 126 -19 -7
-4260 -8 -6169 -1 l-1440 5 -42 68 c-23 37 -42 70 -43 75 0 4 -11 26 -26 48
-29 46 -59 98 -86 149 -10 19 -33 58 -50 85 -35 56 -63 104 -108 185 -17 30
-38 69 -48 85 -10 17 -37 64 -61 105 -24 41 -71 120 -104 174 -33 55 -66 113
-73 130 -8 17 -31 58 -52 92 -42 66 -181 306 -224 386 -15 27 -34 60 -42 73
-9 14 -28 46 -43 72 -51 92 -256 448 -272 473 -9 14 -23 39 -31 55 -8 17 -29
50 -45 75 -29 42 -76 124 -113 195 -8 17 -27 48 -42 70 -15 22 -29 48 -33 57
-3 10 -33 63 -67 118 -33 55 -60 103 -60 106 0 2 -19 37 -43 77 -24 39 -61
104 -84 142 -22 39 -72 124 -110 190 -39 66 -82 140 -96 165 -30 55 -82 146
-127 220 -17 30 -36 62 -41 70 -5 8 -21 38 -35 65 -15 28 -44 77 -65 111 -22
34 -39 66 -39 71 0 6 -8 21 -18 34 -10 13 -29 44 -43 69 -13 25 -33 59 -45 75
-12 17 -35 54 -50 84 -16 30 -33 61 -39 70 -5 9 -37 64 -69 121 -33 58 -71
125 -86 150 -15 25 -44 77 -65 115 -21 39 -54 97 -75 130 -20 33 -56 94 -79
135 -24 41 -49 86 -57 100 -8 14 -31 54 -51 90 -19 36 -46 81 -58 100 -13 19
-51 85 -85 145 -34 61 -77 137 -97 170 -19 33 -45 78 -57 100 -13 22 -45 77
-72 123 -27 46 -60 102 -73 125 -45 80 -104 182 -120 207 -9 14 -30 50 -46 80
-16 30 -39 70 -52 89 -13 18 -23 37 -23 42 0 4 -21 43 -47 87 -27 44 -66 111
-88 150 l-40 70 -100 11 c-55 7 -123 14 -150 17 -55 5 -54 5 -108 104 -16 30
-38 71 -48 90 -11 19 -19 40 -19 47 0 20 39 98 60 121 11 12 20 28 20 37 0 10
9 15 28 15 15 0 77 10 137 21 61 11 124 23 141 26 24 4 36 15 53 47 11 22 64
113 116 201 52 88 126 216 165 285 39 69 101 177 138 241 37 64 106 186 153
270 48 85 96 170 108 189 11 19 26 46 33 60 7 14 25 45 42 69 16 24 44 74 63
110 18 36 55 102 82 146 26 44 77 131 112 194 35 63 75 133 89 156 14 23 51
86 83 141 32 54 62 106 67 114 5 8 77 134 160 280 83 146 155 272 160 280 27
44 229 397 247 432 8 15 19 30 24 34 5 3 20 27 33 52 24 49 97 177 193 342 30
52 66 115 79 140 14 25 42 72 62 105 21 33 53 86 71 118 l32 57 -3263 0 -3263
0 -24 -38 c-14 -20 -35 -55 -47 -77 -43 -81 -68 -124 -164 -285 -182 -307
-230 -389 -230 -394 0 -3 -24 -45 -53 -93 -29 -48 -71 -119 -92 -158 -22 -38
-45 -79 -52 -90 -7 -11 -16 -29 -22 -40 -5 -11 -27 -49 -50 -85 -22 -36 -53
-87 -67 -115 -14 -27 -34 -59 -44 -70 -9 -11 -22 -33 -27 -50 -6 -16 -27 -55
-47 -85 -20 -30 -36 -58 -36 -62 0 -4 -40 -74 -88 -155 -184 -308 -218 -367
-263 -451 -26 -47 -61 -103 -78 -123 -17 -21 -31 -42 -31 -47 0 -5 -12 -27
-26 -48 -15 -21 -46 -73 -69 -114 -23 -41 -77 -136 -120 -210 -44 -74 -104
-179 -134 -232 -99 -173 -265 -458 -323 -557 -32 -53 -67 -114 -78 -136 -12
-22 -32 -58 -46 -80 -13 -22 -31 -53 -39 -70 -9 -16 -21 -39 -28 -50 -6 -11
-28 -48 -49 -81 l-37 -62 57 -11 c31 -6 91 -18 132 -26 41 -8 85 -15 98 -15
12 0 22 -2 22 -4 0 -9 -27 -54 -52 -87 -16 -20 -28 -43 -28 -51 0 -9 -7 -21
-14 -28 -8 -6 -20 -27 -26 -46 -7 -19 -20 -39 -31 -44 -10 -6 -19 -17 -19 -24
0 -8 -6 -19 -14 -25 -7 -6 -19 -31 -26 -55 l-12 -44 -62 -6 c-33 -3 -117 -10
-186 -17 l-126 -11 -42 -82 -41 -81 -72 3 c-97 5 -139 -4 -139 -28 0 -10 -6
-23 -14 -27 -16 -10 -116 -139 -116 -150 0 -5 -8 -16 -18 -24 -11 -9 -26 -27
-36 -40 l-16 -24 -224 0 c-124 0 -227 3 -231 6 -7 8 17 89 27 89 5 0 8 8 8 18
0 9 11 39 25 66 14 27 25 64 25 82 l0 32 -5518 2 c-3034 2 -5746 3 -6027 3
-280 1 -544 -2 -585 -6 -41 -4 -160 -11 -265 -17 -204 -12 -631 -55 -680 -69
-27 -8 -72 -17 -190 -37 -54 -9 -59 -10 -145 -23 -41 -6 -86 -15 -100 -20 -31
-11 -128 -40 -155 -46 -29 -6 -179 -60 -194 -69 -7 -5 -46 -25 -85 -46 -39
-20 -90 -48 -111 -63 -22 -15 -45 -27 -51 -27 -7 0 -31 -15 -53 -34 -23 -19
-51 -38 -64 -42 -32 -10 -123 -90 -270 -238 -206 -208 -309 -331 -515 -618
-29 -40 -61 -84 -71 -98 -26 -36 -152 -225 -176 -264 -11 -18 -36 -55 -55 -82
-19 -27 -60 -89 -91 -139 -31 -49 -81 -130 -111 -180 -31 -49 -68 -112 -82
-139 -14 -27 -30 -54 -35 -60 -8 -9 -38 -60 -95 -161 -77 -135 -148 -257 -195
-336 -32 -53 -80 -137 -106 -185 -26 -49 -53 -96 -60 -104 -6 -8 -15 -22 -19
-30 -3 -8 -20 -37 -36 -65 -16 -27 -33 -57 -37 -65 -3 -8 -14 -26 -23 -40 -10
-14 -35 -56 -56 -95 -20 -38 -50 -90 -65 -115 -15 -25 -46 -76 -67 -115 -22
-38 -97 -169 -167 -290 -70 -121 -141 -245 -157 -275 -17 -30 -37 -65 -44 -77
-8 -12 -26 -44 -40 -70 -15 -26 -46 -77 -69 -113 -23 -36 -53 -85 -65 -110
-12 -24 -37 -66 -56 -92 -18 -27 -36 -59 -40 -71 -4 -12 -14 -33 -24 -47 -9
-14 -36 -61 -60 -105 -23 -44 -48 -87 -55 -95 -7 -8 -34 -53 -60 -100 -25 -47
-84 -148 -131 -225 -46 -77 -91 -155 -99 -173 -13 -26 -70 -127 -126 -222 -4
-8 -46 -80 -91 -159 -46 -79 -93 -160 -105 -180 -12 -20 -45 -76 -74 -126 -28
-49 -91 -157 -140 -240 -48 -82 -100 -172 -113 -200 -26 -51 -30 -57 -78 -132
-16 -23 -28 -44 -28 -48 0 -3 -12 -24 -27 -48 -38 -59 -70 -116 -88 -155 -9
-18 -31 -56 -50 -83 -19 -27 -35 -55 -35 -62 0 -7 -4 -17 -9 -23 -10 -10 -105
-172 -129 -219 -8 -16 -23 -41 -32 -55 -9 -14 -34 -56 -55 -95 -21 -38 -60
-104 -86 -145 -56 -88 -226 -370 -292 -485 -25 -44 -55 -96 -66 -115 -18 -30
-77 -133 -231 -400 -20 -36 -62 -108 -93 -160 -31 -52 -68 -117 -82 -145 -25
-47 -223 -390 -344 -595 -31 -52 -65 -113 -76 -135 -11 -22 -70 -122 -130
-222 -61 -100 -122 -204 -136 -230 -25 -47 -56 -101 -88 -155 -21 -35 -183
-317 -197 -343 -6 -11 -40 -69 -76 -130 -35 -60 -78 -133 -94 -161 -65 -115
-240 -417 -256 -442 -10 -15 -21 -33 -25 -41 -3 -8 -44 -79 -90 -159 -46 -79
-83 -145 -83 -147 0 -2 -18 -31 -40 -64 -22 -33 -40 -64 -40 -68 0 -4 -18 -35
-40 -68 -23 -33 -47 -73 -54 -90 -7 -16 -54 -99 -105 -183 -50 -84 -91 -159
-91 -165 0 -7 45 -22 108 -36 157 -34 146 -30 129 -49 -8 -10 -31 -48 -52 -87
-21 -38 -46 -81 -56 -94 -11 -13 -19 -29 -19 -35 0 -6 -20 -41 -43 -77 -24
-36 -46 -72 -49 -80 -4 -11 -42 -18 -154 -27 -143 -12 -149 -13 -171 -40 -12
-15 -25 -39 -28 -54 -10 -41 -29 -51 -106 -52 -64 -1 -73 -4 -92 -28 -69 -85
-83 -102 -91 -117 -6 -9 -22 -29 -38 -46 -15 -16 -28 -36 -28 -42 0 -13 -26
-14 -382 -17 -69 -1 -104 2 -98 8 6 6 10 19 10 30 0 11 10 39 21 63 12 25 25
59 30 76 4 18 11 43 15 56 l7 24 -2814 -7 c-4574 -12 -11917 -10 -11933 4 -8
6 -17 23 -21 38 -4 15 -12 33 -18 41 -7 7 -25 37 -42 66 -16 29 -48 84 -69
121 -52 92 -138 240 -198 342 -26 45 -48 85 -48 87 0 3 -22 40 -48 83 -27 42
-84 140 -127 217 -42 77 -85 151 -95 165 -9 14 -36 61 -60 105 -24 44 -52 93
-64 110 -12 16 -29 46 -38 65 -10 19 -29 53 -42 75 -14 22 -35 58 -47 80 -12
22 -45 81 -74 130 -29 50 -77 133 -107 185 -31 52 -97 167 -148 255 -51 88
-119 205 -150 260 -31 55 -74 129 -95 165 -20 36 -49 85 -63 110 -13 25 -44
78 -68 117 -24 40 -44 75 -44 78 0 3 -11 22 -23 43 -13 20 -35 57 -49 82 -14
25 -39 68 -55 95 -60 100 -167 285 -244 425 -28 52 -68 120 -88 150 -20 30
-44 70 -54 90 -60 119 -61 119 -136 235 -15 22 -40 65 -55 95 -16 30 -34 62
-41 70 -7 8 -37 59 -66 113 -55 100 -67 122 -134 237 -21 36 -46 81 -57 100
-11 19 -24 40 -28 45 -4 6 -20 33 -35 60 -15 28 -48 85 -73 127 -84 140 -120
202 -153 263 -35 67 -130 231 -164 285 -13 19 -24 40 -26 45 -4 11 -91 161
-180 310 -32 55 -72 126 -88 157 -16 31 -38 69 -49 85 -11 15 -33 53 -50 83
-16 30 -71 126 -121 213 -50 87 -100 175 -111 195 -11 20 -30 53 -42 72 -12
19 -31 51 -42 71 -12 20 -52 90 -90 155 -38 66 -77 133 -86 150 -9 16 -25 43
-36 60 -11 16 -27 45 -36 64 -10 19 -53 96 -98 170 -44 74 -89 153 -100 176
-11 22 -28 51 -38 65 -10 13 -26 38 -34 54 -8 17 -40 72 -69 123 -30 51 -61
105 -69 120 -23 40 -79 135 -91 152 -9 15 -65 116 -118 215 -15 28 -39 69 -54
91 -14 23 -38 64 -54 92 -38 68 -130 225 -203 347 -33 55 -65 111 -72 125 -7
14 -25 44 -40 67 -15 23 -28 45 -28 48 0 4 -25 50 -57 103 -31 53 -74 129 -96
167 -22 39 -70 120 -106 182 -36 61 -87 151 -114 200 -26 48 -68 122 -92 163
-25 41 -53 91 -63 110 -9 19 -29 53 -43 75 -13 22 -30 51 -37 65 -6 14 -30 54
-51 90 -22 36 -54 90 -71 120 -67 120 -78 139 -98 168 -12 16 -26 41 -31 55
-6 14 -36 67 -68 119 -32 51 -67 109 -78 129 -11 20 -35 63 -52 95 -65 118
-89 159 -104 184 -37 58 -165 278 -181 310 -10 19 -27 49 -37 65 -11 17 -34
57 -52 90 -17 33 -57 103 -88 155 -32 52 -90 154 -131 225 -40 72 -93 163
-117 202 -24 40 -43 76 -43 80 0 3 -6 14 -14 22 -8 9 -26 39 -41 66 -15 28
-44 79 -66 115 -21 36 -43 74 -48 85 -5 11 -42 76 -83 145 -41 69 -77 130 -79
135 -28 71 -89 143 -89 105 0 -5 -8 -19 -18 -29 -22 -25 -31 -37 -65 -87 -15
-23 -39 -47 -52 -54 -14 -7 -25 -18 -25 -24 0 -15 -86 124 -138 224 -24 47
-54 99 -66 115 -28 37 -39 65 -26 65 6 0 10 8 10 18 0 14 61 166 91 224 16 32
9 75 -21 133 -16 31 -30 63 -30 71 0 8 14 38 30 67 17 30 30 62 30 72 0 17
-40 135 -58 172 -50 101 -60 145 -38 178 9 13 16 29 16 34 0 5 18 37 40 70 22
33 40 62 40 65 0 3 25 48 56 100 39 68 60 94 69 88 7 -4 39 -41 70 -82 32 -41
64 -79 72 -83 7 -4 13 -15 13 -22 0 -29 20 -14 56 42 20 31 39 64 42 72 3 9
18 35 34 58 15 23 28 44 28 47 0 4 20 40 45 80 25 41 45 79 45 83 0 5 19 38
42 74 23 35 79 129 124 209 44 80 107 190 139 245 32 55 74 127 92 160 19 33
38 67 43 75 41 64 100 166 100 173 0 5 13 28 30 52 17 24 30 46 30 50 0 3 11
22 23 43 28 43 108 181 196 337 34 61 66 117 71 125 50 82 130 220 130 226 0
3 8 18 19 32 10 15 38 63 61 107 24 44 48 87 55 95 7 8 19 29 27 45 8 17 70
127 138 245 67 118 131 230 142 248 10 19 45 77 77 130 32 53 68 117 81 142
12 25 38 68 57 96 18 29 63 112 99 185 37 74 73 142 82 152 14 16 -962 17
-20486 17 l-20502 0 0 -54000z m147525 -30441 c281 -1 517 -5 526 -10 9 -4 52
-70 95 -145 43 -75 90 -156 104 -180 14 -24 41 -69 60 -101 42 -69 55 -91 98
-169 18 -33 40 -72 50 -89 70 -119 102 -175 120 -205 10 -19 36 -63 56 -97 20
-34 36 -64 36 -68 0 -4 9 -19 20 -34 17 -25 156 -264 249 -429 20 -35 41 -71
46 -80 6 -10 59 -103 119 -207 60 -105 122 -209 137 -232 16 -23 29 -44 29
-47 0 -3 14 -29 31 -58 17 -29 44 -75 59 -103 15 -27 46 -81 68 -120 23 -38
51 -90 64 -115 13 -25 25 -47 28 -50 6 -5 59 -94 70 -115 14 -29 166 -295 186
-325 26 -41 164 -281 164 -286 0 -2 13 -22 29 -46 16 -24 52 -86 81 -138 28
-52 75 -135 104 -185 98 -167 169 -290 199 -345 16 -30 41 -72 54 -94 14 -21
35 -58 48 -80 28 -51 69 -122 145 -251 33 -55 97 -167 143 -250 46 -82 98
-172 116 -199 17 -28 31 -54 31 -59 0 -4 13 -27 28 -50 16 -23 50 -80 77 -127
26 -47 55 -98 65 -115 35 -59 173 -301 198 -345 14 -25 33 -56 42 -70 9 -14
31 -50 47 -80 17 -30 65 -116 108 -190 43 -74 112 -196 155 -270 109 -193 113
-199 136 -234 11 -18 36 -61 54 -97 19 -35 39 -70 44 -78 6 -7 25 -37 41 -66
17 -29 50 -88 75 -131 63 -110 62 -106 31 -156 -15 -23 -47 -78 -72 -121 -24
-43 -71 -125 -104 -182 -33 -57 -87 -151 -119 -207 -71 -125 -119 -206 -159
-273 -17 -27 -58 -99 -92 -160 -34 -60 -71 -126 -82 -145 -17 -29 -76 -132
-144 -250 -8 -14 -20 -32 -27 -41 -7 -9 -25 -40 -40 -70 -33 -63 -116 -209
-147 -259 -13 -19 -38 -64 -58 -100 -19 -36 -60 -109 -91 -162 -31 -54 -80
-140 -110 -190 -29 -51 -68 -118 -86 -148 -18 -30 -51 -89 -73 -130 -22 -41
-48 -86 -57 -100 -9 -14 -45 -77 -80 -140 -35 -63 -76 -133 -91 -156 -15 -22
-42 -67 -59 -100 -17 -32 -48 -86 -67 -119 -20 -33 -50 -87 -68 -120 -17 -33
-61 -111 -98 -174 -37 -62 -67 -115 -67 -118 0 -2 -17 -32 -38 -66 -50 -80
-95 -158 -103 -177 -4 -8 -28 -49 -53 -90 -25 -41 -46 -78 -46 -83 0 -5 -8
-21 -19 -35 -19 -28 -47 -76 -87 -148 -12 -22 -33 -58 -46 -80 -14 -21 -46
-82 -72 -134 -26 -52 -53 -102 -60 -110 -7 -8 -16 -23 -19 -32 -4 -10 -21 -42
-40 -70 -18 -29 -50 -87 -71 -128 -21 -41 -48 -88 -60 -105 -12 -16 -35 -55
-50 -85 -16 -30 -56 -102 -91 -160 -34 -58 -73 -125 -87 -150 -49 -88 -66
-116 -145 -250 -44 -74 -93 -158 -109 -187 -16 -28 -49 -87 -74 -130 -25 -43
-52 -90 -60 -105 -8 -15 -31 -53 -50 -85 -19 -32 -39 -67 -45 -78 -45 -79 -83
-145 -144 -245 -38 -63 -85 -144 -104 -180 -20 -36 -65 -114 -101 -175 -35
-60 -84 -148 -107 -195 l-42 -85 -3936 -3 c-2165 -2 -3958 0 -3984 4 -47 6
-48 7 -83 72 -19 37 -47 88 -62 113 -62 104 -172 307 -172 317 0 5 -7 15 -15
22 -9 7 -32 43 -52 79 -46 83 -131 232 -194 337 -27 45 -49 85 -49 89 0 5 -6
16 -14 24 -12 14 -95 155 -194 331 -14 25 -58 102 -99 173 -40 70 -73 130 -73
134 0 4 -6 14 -14 22 -7 9 -25 36 -38 61 -14 25 -42 73 -62 107 -20 34 -36 63
-36 66 0 2 -25 46 -55 96 -30 51 -55 94 -55 96 0 3 -33 60 -73 128 -40 67 -93
157 -118 200 -24 43 -60 106 -80 140 -19 34 -47 83 -61 109 -15 25 -38 64 -52
87 -14 22 -26 43 -26 46 0 4 -13 26 -30 50 -16 24 -30 47 -30 51 0 4 -14 30
-31 58 -18 28 -48 80 -67 116 -19 36 -40 72 -47 80 -7 8 -26 39 -41 68 -59
110 -71 129 -92 159 -12 17 -22 33 -22 36 0 3 -16 34 -36 69 -20 34 -47 81
-59 103 -12 22 -60 106 -106 188 -91 160 -111 197 -132 242 -8 17 -52 95 -99
175 -114 193 -132 224 -174 300 -20 36 -47 81 -60 101 -13 19 -24 38 -24 41 0
3 -20 39 -45 79 -25 40 -45 77 -45 82 0 5 -13 27 -29 50 -24 36 -73 122 -201
352 -61 110 -160 280 -212 367 -32 53 -62 105 -66 115 -4 10 -26 50 -48 88
-75 128 -156 269 -187 325 -16 30 -35 62 -41 70 -6 8 -22 35 -36 60 -61 115
-56 112 -201 145 l-132 30 -38 68 c-22 38 -39 73 -39 79 0 5 -15 30 -32 55
l-33 45 0 193 c0 168 2 195 17 212 10 10 27 39 38 63 12 25 30 59 40 75 11 17
28 46 39 66 20 36 21 36 113 48 174 22 154 9 223 136 12 22 48 85 80 140 32
55 67 116 78 135 10 19 47 82 81 138 33 57 81 141 106 185 25 45 57 100 71
122 15 23 39 64 54 93 15 29 31 55 36 58 5 2 16 22 26 42 9 20 42 80 73 132
61 102 184 315 288 500 35 63 73 127 83 142 11 14 19 28 19 31 0 4 92 169 110
197 5 8 23 40 40 70 16 30 42 75 56 100 15 25 35 59 44 75 113 196 179 310
239 413 39 68 83 144 96 170 14 26 54 94 90 152 35 58 64 109 65 114 0 5 6 17
14 25 8 9 33 52 56 96 24 44 49 87 56 95 7 9 22 36 33 60 11 25 38 72 61 105
22 33 40 64 40 68 0 5 15 32 34 60 19 29 47 77 64 107 43 81 262 461 281 490
9 14 30 50 45 80 16 30 34 62 41 70 6 8 40 67 75 130 34 63 96 170 136 237 41
67 74 124 74 127 0 3 16 30 35 60 19 30 35 57 35 60 0 2 23 41 50 86 28 45 50
83 50 84 0 2 30 55 66 117 95 162 322 556 352 609 13 25 28 50 32 55 4 6 17
26 28 45 10 19 65 114 120 210 l100 175 1864 6 c1591 4 3011 4 5533 -2z"/>
<path d="M140374 23033 c-28 -54 -139 -247 -222 -388 -20 -33 -45 -78 -57
-100 -11 -22 -28 -51 -37 -65 -8 -14 -45 -77 -82 -140 -36 -63 -71 -122 -76
-130 -11 -19 -73 -128 -113 -199 -16 -30 -41 -70 -53 -89 -13 -19 -24 -39 -24
-44 0 -5 -11 -24 -25 -42 -14 -18 -25 -36 -25 -39 0 -4 -23 -46 -51 -94 -67
-117 -70 -121 -101 -171 -16 -24 -28 -49 -28 -57 0 -8 -4 -16 -9 -20 -6 -3
-29 -40 -52 -83 -23 -42 -56 -99 -74 -127 -18 -27 -47 -77 -65 -110 -18 -33
-44 -77 -57 -97 -12 -21 -23 -40 -23 -43 0 -2 -29 -53 -63 -112 -35 -60 -82
-139 -103 -176 -21 -38 -44 -76 -49 -85 -6 -9 -46 -80 -89 -157 -44 -77 -85
-147 -92 -155 -6 -8 -26 -42 -44 -75 -60 -111 -77 -140 -142 -250 -36 -60 -88
-150 -115 -200 -49 -87 -120 -210 -257 -444 -36 -62 -66 -115 -66 -117 0 -1
-22 -41 -50 -89 -27 -48 -50 -88 -50 -90 0 -1 -29 -50 -65 -109 -36 -58 -65
-108 -65 -110 0 -2 -19 -37 -43 -78 -24 -40 -47 -80 -51 -88 -4 -8 -12 -24
-19 -35 -7 -11 -41 -71 -77 -133 -103 -179 -174 -302 -215 -372 -21 -36 -51
-90 -68 -120 -28 -51 -50 -90 -168 -290 -24 -41 -53 -93 -65 -115 -11 -22 -37
-67 -56 -100 -183 -314 -185 -317 -202 -421 -8 -55 -21 -142 -27 -194 -6 -52
-20 -113 -30 -136 -24 -50 -23 -63 1 -94 11 -14 20 -40 20 -58 0 -18 12 -110
26 -205 l25 -172 66 -115 c36 -63 79 -140 96 -170 16 -30 38 -67 49 -82 10
-14 18 -29 18 -33 0 -4 25 -47 55 -97 30 -49 55 -92 55 -94 0 -2 17 -33 38
-67 21 -34 83 -141 137 -237 54 -96 108 -191 120 -210 31 -48 96 -159 116
-195 9 -16 33 -59 54 -95 21 -36 51 -90 68 -120 17 -30 41 -71 54 -90 12 -19
23 -38 23 -43 0 -5 14 -28 30 -52 17 -24 30 -46 30 -48 0 -4 39 -72 175 -307
43 -74 112 -193 153 -265 40 -71 79 -137 86 -145 7 -8 33 -51 58 -95 86 -154
131 -230 173 -295 23 -36 51 -85 63 -110 13 -25 32 -61 44 -80 63 -105 148
-250 167 -285 11 -22 34 -62 51 -90 17 -27 44 -75 61 -105 17 -30 41 -73 54
-95 13 -22 38 -65 55 -95 16 -30 35 -62 40 -70 17 -25 142 -242 170 -295 15
-27 54 -95 87 -150 32 -55 78 -134 101 -175 24 -41 60 -104 81 -140 39 -64
155 -267 176 -305 6 -11 68 -117 137 -235 111 -191 144 -248 233 -405 13 -22
47 -80 75 -130 29 -49 67 -115 84 -145 17 -30 42 -74 56 -98 l25 -42 3683 1
3683 1 9 24 c8 21 38 72 87 150 7 10 35 60 63 111 28 50 57 97 65 103 8 7 15
16 15 21 0 5 18 39 40 75 22 36 40 68 40 70 0 2 24 45 53 94 28 50 59 102 67
118 41 71 147 257 167 290 13 20 39 66 59 102 21 36 54 93 75 127 22 34 39 65
39 68 0 2 29 53 64 112 35 60 73 125 85 146 11 20 30 54 42 74 11 20 36 61 56
91 19 30 39 64 44 76 5 12 18 35 29 51 10 17 30 50 43 75 41 77 68 123 97 165
25 37 41 63 103 175 10 19 24 42 31 50 6 8 22 35 34 60 13 25 27 52 32 60 18
30 220 375 350 600 40 69 97 168 128 220 30 52 64 113 75 135 11 22 36 65 56
95 20 30 44 71 54 90 9 19 21 42 27 50 19 29 136 236 150 265 8 17 27 48 41
70 15 22 38 60 51 85 30 54 194 340 291 505 39 66 86 147 105 180 99 174 213
372 222 385 5 8 30 51 55 95 26 44 63 109 84 145 21 36 48 83 61 105 12 22 32
58 43 80 12 22 36 64 54 92 18 29 44 72 56 95 13 24 48 84 77 133 54 92 73
125 130 230 18 33 45 78 60 100 60 88 84 155 61 170 -5 3 -23 29 -39 58 -29
53 -90 160 -130 230 -12 21 -40 68 -61 105 -21 37 -61 107 -89 156 -29 49 -52
91 -52 93 0 3 -8 17 -19 31 -10 15 -31 50 -46 77 -15 28 -39 71 -53 96 -15 25
-54 93 -86 150 -32 57 -69 120 -81 139 -12 19 -57 98 -100 175 -43 77 -88 156
-101 175 -12 19 -42 71 -67 115 -24 44 -60 107 -80 140 -19 33 -61 105 -92
160 -31 55 -64 114 -74 130 -39 64 -205 354 -229 400 -9 17 -20 35 -25 40 -10
12 -46 71 -86 145 -17 30 -45 80 -63 111 -18 31 -55 96 -83 143 -27 48 -72
124 -99 169 -26 45 -59 102 -72 127 -51 94 -90 160 -102 172 -7 7 -12 15 -12
18 0 6 -115 209 -293 517 -42 72 -86 149 -98 170 -11 21 -37 65 -56 98 -19 33
-38 67 -43 75 -5 8 -31 55 -59 103 -28 48 -51 90 -51 94 0 3 -11 21 -25 39
-14 18 -25 35 -25 37 0 4 -74 136 -145 257 -47 80 -185 319 -208 360 -10 19
-41 72 -68 118 -27 45 -49 85 -49 88 0 3 -25 46 -55 96 -30 49 -55 92 -55 94
0 3 -15 28 -33 57 -18 29 -56 93 -83 142 -27 50 -53 97 -59 106 -5 9 -21 36
-34 60 -13 24 -29 51 -36 59 -7 8 -31 49 -53 90 -22 41 -58 104 -79 140 -22
36 -52 88 -66 115 -14 28 -32 59 -40 69 -14 20 -67 20 -3703 23 l-3689 3 -31
-57z"/>
<path d="M41714 107918 c-27 -46 -68 -114 -93 -153 -25 -38 -52 -83 -61 -100
-9 -16 -56 -97 -105 -180 -49 -82 -114 -195 -145 -250 -112 -196 -173 -301
-208 -360 -20 -33 -55 -94 -78 -135 -37 -68 -125 -221 -222 -385 -50 -86 -72
-124 -113 -196 -19 -35 -59 -104 -89 -154 -29 -49 -64 -110 -78 -135 -53 -95
-60 -106 -90 -155 -17 -27 -40 -66 -50 -86 -17 -33 -64 -114 -184 -316 -26
-45 -48 -84 -48 -87 0 -2 -22 -41 -50 -86 -27 -45 -50 -84 -50 -87 0 -2 -24
-46 -53 -96 -30 -51 -73 -126 -97 -167 -24 -41 -66 -115 -94 -163 -28 -48 -60
-105 -72 -125 -91 -162 -243 -426 -269 -467 -62 -98 -62 -92 -3 -109 29 -9 79
-21 111 -28 l58 -13 -37 -60 c-20 -33 -46 -76 -57 -96 l-20 -37 60 -103 c33
-57 59 -105 58 -106 -1 -2 -50 -9 -109 -17 -59 -7 -109 -16 -112 -18 -5 -5 8
-29 155 -283 51 -88 105 -182 120 -209 14 -27 31 -56 36 -65 28 -46 83 -140
101 -173 10 -20 39 -70 63 -110 60 -99 97 -164 167 -287 32 -57 78 -136 101
-175 23 -39 63 -109 90 -156 26 -47 52 -92 58 -101 5 -9 32 -57 59 -105 27
-49 59 -105 71 -124 22 -35 157 -268 200 -345 50 -90 223 -388 276 -475 5 -8
14 -26 19 -39 6 -13 19 -35 29 -50 19 -26 51 -81 81 -136 43 -81 95 -174 115
-205 30 -49 88 -146 117 -200 14 -25 59 -103 100 -175 41 -71 86 -150 100
-175 14 -25 46 -81 73 -125 26 -44 51 -89 56 -100 9 -21 17 -33 60 -100 15
-22 36 -60 49 -85 20 -41 61 -111 215 -375 29 -49 66 -115 82 -145 17 -30 48
-85 70 -121 22 -36 43 -74 47 -86 4 -11 15 -28 26 -38 11 -10 20 -22 20 -27 0
-5 30 -62 67 -126 36 -64 76 -135 89 -158 12 -22 44 -77 71 -121 65 -110 176
-303 186 -322 4 -9 19 -37 35 -62 15 -25 44 -77 66 -115 21 -38 57 -100 80
-139 23 -38 46 -77 50 -85 4 -8 12 -24 19 -35 7 -11 34 -59 61 -105 27 -47 65
-112 84 -145 79 -136 239 -413 245 -426 4 -8 18 -32 32 -54 14 -22 37 -62 51
-90 15 -27 41 -72 58 -100 18 -27 54 -90 82 -138 91 -162 195 -346 209 -368 5
-9 23 -38 38 -65 15 -27 41 -71 57 -99 16 -27 41 -70 55 -95 14 -25 31 -54 38
-65 24 -38 54 -91 95 -165 22 -42 68 -121 101 -175 33 -55 81 -138 107 -185
26 -47 81 -143 124 -215 42 -71 94 -161 115 -200 21 -38 46 -81 56 -95 17 -25
70 -120 97 -175 9 -16 23 -41 33 -54 10 -13 30 -46 44 -75 14 -28 34 -64 45
-81 10 -16 42 -70 69 -120 28 -49 66 -115 84 -146 17 -31 55 -96 83 -145 92
-160 160 -278 214 -369 68 -115 156 -269 210 -365 23 -41 64 -111 90 -155 26
-44 67 -116 92 -160 24 -44 80 -141 123 -215 43 -74 89 -155 103 -180 13 -25
45 -81 72 -125 26 -44 72 -123 102 -175 31 -52 87 -149 126 -215 38 -66 79
-138 91 -160 12 -22 53 -94 92 -160 39 -66 98 -167 130 -225 33 -58 64 -112
69 -120 16 -25 112 -193 128 -224 8 -15 31 -56 52 -90 l37 -61 3089 -8 c1699
-4 4597 -5 6439 -2 1843 3 3705 5 4139 5 747 0 788 1 781 18 -4 9 -10 28 -12
42 -2 14 -8 34 -13 45 -4 11 -13 33 -19 48 -15 38 -14 47 7 45 9 -1 62 0 118
0 l101 2 37 59 c20 32 36 62 36 65 0 3 14 29 31 57 l32 50 32 -31 c17 -17 45
-48 61 -70 26 -35 64 -54 64 -32 0 6 156 284 240 427 42 72 95 164 123 215 16
30 38 66 47 80 10 14 36 60 59 104 23 43 50 91 61 106 11 16 20 30 20 33 0 3
22 43 49 89 93 156 132 223 190 323 32 55 97 166 145 247 47 80 86 148 86 151
0 5 86 157 137 243 17 27 41 70 55 95 56 100 126 221 190 327 37 63 68 116 68
119 0 3 29 53 64 112 35 58 73 122 83 141 27 47 250 438 326 570 33 58 67 116
75 130 45 80 78 137 171 297 57 98 142 248 187 334 45 86 95 176 110 200 32
52 124 210 124 215 0 3 78 140 99 174 10 15 167 284 205 351 12 21 43 77 70
125 26 49 54 96 61 104 7 8 32 51 56 95 23 44 51 91 61 104 10 13 18 27 18 32
0 4 22 44 50 89 27 45 50 84 50 86 0 3 19 38 43 77 24 40 61 104 82 142 50 92
54 99 93 159 17 28 32 54 32 58 0 5 12 27 27 51 15 23 40 67 56 97 15 30 34
62 41 70 7 8 18 26 24 40 21 44 72 133 107 186 18 28 45 74 59 102 14 28 61
109 103 179 42 71 87 148 100 173 33 61 111 197 266 460 65 110 75 128 130
231 25 47 61 110 79 140 19 30 58 97 87 149 29 52 62 111 73 130 48 80 129
221 408 710 24 41 53 91 65 110 12 19 46 78 75 130 29 52 63 111 75 130 50 79
155 267 155 278 0 6 6 15 13 19 6 4 22 28 34 53 25 50 81 150 93 165 4 6 28
46 52 90 25 44 69 121 98 170 52 89 128 224 180 320 15 28 37 68 50 90 72 125
324 623 370 730 11 28 28 63 36 78 13 28 23 51 101 252 20 50 43 106 53 125
22 45 40 101 40 127 0 11 3 23 7 27 5 4 13 29 20 54 6 26 17 65 23 87 7 22 18
69 25 105 7 36 15 72 19 80 10 26 36 265 36 332 0 42 -5 71 -15 84 -8 10 -24
37 -35 59 -11 22 -38 69 -59 105 -21 36 -68 116 -104 179 -37 62 -67 117 -67
120 0 4 -20 38 -45 76 -25 39 -48 79 -51 90 -4 11 -13 28 -22 38 -9 10 -17 23
-18 30 -1 7 -40 75 -86 152 -46 77 -104 176 -128 220 -24 44 -60 105 -79 135
-36 57 -53 85 -110 192 -18 34 -51 90 -72 124 -22 34 -39 66 -39 73 0 6 -4 11
-9 11 -5 0 -14 14 -20 31 -6 17 -27 53 -46 80 -19 27 -35 51 -35 54 0 5 -64
120 -101 180 -19 31 -61 105 -117 208 -18 32 -53 89 -77 126 -25 38 -45 71
-45 74 0 3 -16 34 -36 69 -64 111 -93 162 -124 218 -17 30 -36 64 -43 74 -54
86 -102 166 -150 254 -32 56 -63 113 -70 125 -6 12 -17 29 -24 37 -7 9 -24 38
-38 65 -15 28 -39 66 -54 85 -29 38 -131 205 -131 216 0 3 -13 26 -29 49 -16
24 -57 94 -92 157 -34 62 -77 136 -96 165 -18 28 -33 55 -33 60 0 5 -15 31
-33 58 -35 54 -96 160 -138 240 l-26 50 -12001 3 -12000 2 -48 -82z"/>
<path d="M67360 107993 c0 -5 19 -40 43 -80 23 -39 54 -93 69 -120 30 -52 42
-72 72 -117 20 -30 33 -54 100 -178 21 -40 48 -86 60 -103 12 -16 41 -68 65
-115 24 -47 51 -94 60 -105 9 -11 25 -36 34 -55 26 -52 76 -139 114 -196 18
-28 33 -57 33 -65 0 -8 14 -34 30 -59 16 -25 30 -54 30 -65 0 -12 4 -25 9 -30
5 -6 50 -80 98 -165 144 -252 273 -472 304 -520 16 -25 34 -56 41 -70 7 -14
57 -102 113 -197 55 -95 109 -190 120 -211 11 -22 25 -46 31 -53 6 -8 35 -59
64 -114 29 -55 58 -107 65 -115 7 -8 32 -50 56 -94 24 -43 56 -99 71 -125 15
-25 46 -80 69 -121 69 -126 131 -235 244 -427 76 -129 83 -138 144 -174 34
-22 65 -39 68 -39 2 0 30 -12 61 -26 63 -29 113 -48 282 -103 127 -42 164 -51
325 -80 61 -11 124 -22 140 -26 17 -3 53 -8 82 -10 28 -3 109 -12 180 -20 70
-9 263 -25 428 -36 165 -11 343 -23 395 -26 52 -4 367 -6 700 -6 333 1 3042 2
6021 3 2978 1 5420 5 5427 9 8 5 8 16 -2 44 -7 20 -15 40 -19 43 -4 4 -7 14
-7 23 0 9 -10 39 -22 68 -17 41 -19 56 -10 65 9 9 17 9 35 -1 15 -8 31 -9 46
-3 13 5 44 5 70 1 91 -15 98 -13 120 34 22 47 76 146 84 153 7 7 77 -66 77
-80 0 -6 16 -27 35 -46 19 -19 35 -40 35 -47 0 -32 31 -8 63 50 115 206 170
303 221 392 33 55 98 170 146 255 48 85 122 216 165 290 43 74 107 187 143
250 35 63 75 131 87 150 43 67 140 235 150 260 10 24 63 119 134 238 18 32 45
80 60 107 70 126 159 283 212 370 20 33 48 83 63 110 14 28 31 57 36 65 27 41
160 272 160 278 0 4 16 32 36 62 19 29 42 67 50 84 7 17 27 54 44 81 16 28 37
64 46 80 20 37 100 174 189 325 38 63 82 140 98 170 56 104 79 145 89 158 8 9
-1880 12 -9436 12 -5195 0 -9446 -3 -9446 -7z"/>
<path d="M94220 107992 c0 -5 -34 -66 -76 -138 -94 -159 -194 -335 -194 -341
0 -3 -8 -17 -19 -31 -17 -25 -98 -162 -159 -272 -14 -25 -33 -58 -43 -75 -32
-54 -81 -139 -106 -185 -14 -25 -29 -49 -33 -55 -4 -5 -23 -37 -41 -70 -18
-33 -40 -73 -50 -90 -10 -16 -42 -72 -71 -124 -60 -107 -77 -136 -99 -171 -9
-14 -78 -133 -154 -265 -76 -132 -175 -303 -220 -380 -45 -77 -99 -171 -120
-210 -21 -38 -69 -121 -107 -183 -37 -62 -68 -115 -68 -118 0 -2 -19 -37 -43
-77 -66 -110 -130 -220 -143 -242 -18 -34 -88 -156 -149 -260 -61 -104 -149
-257 -193 -334 -14 -25 -38 -68 -55 -95 -16 -28 -44 -76 -60 -106 -17 -30 -54
-94 -83 -142 l-52 -88 49 -14 c28 -9 74 -21 103 -27 l52 -13 -34 -65 c-19 -36
-40 -73 -47 -81 -29 -36 -26 -52 36 -152 34 -54 59 -101 56 -105 -3 -3 -41 -9
-84 -14 -43 -5 -90 -11 -105 -14 l-26 -6 39 -68 c21 -37 39 -71 39 -74 0 -4
21 -41 46 -84 26 -43 63 -107 82 -143 20 -36 44 -78 53 -95 35 -59 82 -141
106 -185 14 -25 28 -49 33 -55 4 -5 21 -35 37 -65 17 -30 46 -82 66 -115 19
-33 59 -103 88 -155 28 -52 75 -133 103 -180 29 -47 89 -150 135 -230 45 -80
87 -152 92 -160 5 -8 77 -134 160 -280 83 -146 159 -276 168 -290 10 -14 44
-72 75 -130 32 -58 68 -121 81 -140 12 -19 41 -69 65 -110 51 -89 163 -288
178 -315 12 -23 85 -149 159 -275 28 -47 60 -103 72 -125 12 -22 30 -53 41
-70 11 -16 31 -52 46 -80 15 -27 73 -130 130 -228 57 -98 104 -181 104 -183 0
-3 13 -24 28 -47 16 -23 46 -73 67 -112 21 -38 52 -95 70 -125 18 -30 55 -93
83 -140 51 -88 77 -132 120 -210 14 -25 37 -66 51 -91 14 -25 48 -84 75 -130
27 -46 73 -127 102 -179 29 -52 70 -122 89 -155 20 -33 64 -107 97 -165 71
-124 185 -319 198 -340 5 -8 18 -31 28 -50 10 -19 45 -80 77 -135 32 -55 67
-116 78 -135 10 -19 42 -76 71 -125 28 -50 58 -104 66 -120 l16 -30 3509 0
3510 0 3 38 c2 24 -5 56 -17 83 -12 24 -21 48 -21 53 0 16 27 20 122 15 136
-6 140 -5 179 74 19 37 40 75 48 85 16 19 31 22 31 7 0 -10 17 -30 92 -110
l26 -29 143 247 c211 365 387 671 468 812 40 69 78 136 87 150 8 14 38 67 67
118 28 51 61 108 72 127 11 19 70 121 131 227 61 106 135 234 164 283 29 50
63 108 76 130 38 69 84 149 94 165 5 8 49 85 96 170 48 85 113 198 144 250 50
84 115 197 215 375 29 51 54 94 200 345 81 139 146 253 193 340 19 36 42 76
50 90 9 14 25 43 37 65 11 22 26 49 32 60 7 11 44 76 84 145 39 69 91 158 115
198 24 40 44 76 44 81 0 4 13 26 28 47 15 21 38 59 51 84 21 43 38 73 81 143
11 17 28 48 37 67 10 19 21 37 24 40 4 3 24 36 44 75 21 38 73 130 116 204 44
73 79 135 79 137 0 1 27 49 61 106 34 57 65 112 70 123 5 11 34 61 64 110 30
50 67 113 81 140 29 55 85 151 120 205 12 19 36 60 51 90 40 75 72 130 96 163
19 28 19 31 3 64 -9 19 -49 89 -90 156 -40 67 -84 142 -98 167 -94 167 -112
199 -133 230 -12 19 -67 113 -121 209 -54 96 -109 192 -122 215 -13 23 -41 70
-62 106 -21 36 -66 115 -100 175 -35 61 -102 175 -149 255 -47 80 -97 168
-111 195 -15 28 -42 75 -62 105 -19 30 -45 73 -57 95 -12 22 -26 47 -31 55 -5
8 -44 76 -86 150 -100 175 -169 296 -318 552 -11 18 -43 74 -71 123 -28 50
-86 151 -130 225 -43 74 -86 149 -95 165 -10 17 -39 68 -67 115 -27 47 -54 94
-61 105 -6 11 -38 66 -72 123 -33 56 -60 105 -60 108 0 3 -18 33 -40 66 -22
34 -40 67 -40 74 0 6 -7 17 -15 24 -8 7 -28 35 -43 64 -16 28 -55 96 -87 151
-32 55 -80 139 -107 188 l-50 87 -4849 0 c-2667 0 -4849 -4 -4849 -8z"/>
<path d="M111920 107996 c0 -9 64 -121 92 -163 15 -23 28 -44 28 -47 0 -4 25
-50 57 -104 31 -53 95 -167 143 -252 48 -85 106 -184 128 -220 23 -36 50 -81
60 -100 11 -19 36 -64 57 -100 71 -120 100 -172 125 -219 14 -26 46 -81 73
-123 26 -42 47 -79 47 -82 0 -4 15 -30 33 -59 18 -29 46 -77 61 -107 16 -30
74 -131 130 -223 55 -92 110 -182 120 -200 36 -60 250 -382 263 -395 8 -8 21
-28 29 -45 17 -34 102 -165 119 -183 5 -6 30 -39 55 -74 25 -35 72 -95 105
-134 33 -39 72 -87 87 -106 14 -19 45 -55 67 -78 23 -24 41 -47 41 -50 1 -12
112 -127 175 -182 33 -29 82 -72 109 -97 72 -66 275 -200 356 -234 27 -11
2713 -4 2732 7 8 5 7722 16 10481 14 586 0 667 2 667 15 0 8 -3 15 -7 15 -5 0
-16 21 -26 48 -11 26 -34 77 -53 114 -19 37 -34 72 -34 78 0 5 -11 33 -25 62
-14 28 -25 53 -25 54 0 8 91 24 102 18 7 -5 48 -9 90 -9 65 0 78 2 81 17 3 10
12 18 21 18 9 0 16 7 16 15 0 8 8 15 19 15 10 0 32 7 47 15 36 18 54 19 54 2
0 -7 14 -29 31 -48 17 -19 35 -43 40 -54 14 -29 32 -59 47 -75 58 -68 73 -87
78 -102 3 -10 9 -18 14 -18 5 0 12 -9 15 -20 3 -11 13 -20 21 -20 15 0 116 71
144 101 8 9 20 18 27 20 26 9 211 199 335 345 23 28 66 78 94 110 52 62 168
213 246 324 68 97 258 381 258 386 0 2 21 35 48 72 48 68 52 75 95 147 13 22
54 89 90 148 37 60 67 111 67 113 0 3 13 24 28 47 16 23 36 58 46 77 9 19 28
53 41 75 39 68 50 86 110 200 51 98 107 195 173 305 12 19 35 61 52 93 17 32
49 88 72 125 45 73 68 113 106 182 14 25 47 82 74 126 26 45 48 85 48 88 0 4
26 50 59 104 32 53 75 127 95 165 l38 67 -9646 0 c-5305 0 -9646 -2 -9646 -4z"/>
<path d="M114463 102967 c-61 -33 -182 -107 -194 -119 -22 -20 -72 -54 -91
-61 -10 -3 -18 -10 -18 -15 0 -5 -19 -22 -42 -38 -55 -37 -248 -229 -273 -271
-11 -18 -23 -33 -26 -33 -4 0 -37 -35 -73 -77 -36 -43 -74 -87 -83 -98 -10
-10 -55 -69 -100 -130 -45 -60 -103 -139 -130 -174 -26 -35 -56 -78 -66 -95
-11 -17 -27 -40 -37 -51 -18 -21 -199 -295 -264 -400 -20 -33 -54 -87 -75
-121 -21 -33 -58 -96 -82 -140 -24 -43 -48 -86 -54 -95 -5 -9 -21 -36 -34 -60
-13 -24 -26 -46 -30 -49 -3 -3 -24 -39 -45 -80 -22 -41 -47 -86 -56 -100 -26
-38 -52 -82 -71 -115 -15 -29 -218 -382 -287 -500 -19 -33 -43 -76 -54 -95
-10 -19 -30 -53 -43 -75 -13 -22 -43 -74 -66 -115 -23 -41 -52 -87 -65 -102
-12 -15 -46 -72 -75 -125 -29 -54 -60 -110 -71 -125 -10 -14 -33 -52 -52 -85
-18 -32 -67 -117 -109 -190 -42 -73 -81 -140 -86 -150 -14 -26 -100 -175 -111
-193 -15 -25 -61 -105 -167 -290 -92 -160 -153 -265 -237 -407 -17 -29 -60
-103 -95 -165 -36 -62 -81 -140 -101 -173 -20 -33 -50 -85 -67 -115 -17 -30
-44 -77 -59 -103 -16 -26 -42 -72 -59 -102 -16 -30 -76 -135 -133 -232 -116
-200 -116 -199 -158 -268 -17 -27 -50 -86 -74 -130 -23 -44 -49 -87 -56 -96
-8 -8 -14 -19 -14 -22 0 -4 -20 -40 -43 -80 -24 -39 -65 -110 -91 -157 -26
-47 -60 -105 -76 -130 -16 -25 -38 -61 -48 -80 -70 -128 -274 -484 -322 -560
-26 -41 -65 -106 -86 -145 -21 -38 -43 -78 -49 -87 -19 -32 -110 -189 -136
-236 -29 -52 -52 -91 -194 -337 -54 -93 -117 -204 -140 -246 -23 -42 -56 -97
-73 -123 -18 -26 -32 -49 -32 -52 0 -3 -24 -43 -54 -87 -29 -45 -65 -104 -80
-132 -14 -27 -32 -59 -39 -70 -34 -55 -63 -103 -75 -125 -7 -14 -18 -34 -25
-45 -7 -11 -30 -51 -51 -90 -22 -38 -65 -114 -98 -167 -32 -54 -58 -100 -58
-103 0 -4 -95 -170 -141 -245 -5 -8 -23 -40 -39 -70 -17 -30 -55 -95 -85 -145
-29 -49 -78 -133 -108 -185 -30 -52 -79 -138 -109 -190 -30 -52 -90 -156 -133
-230 -88 -153 -118 -205 -158 -269 -15 -25 -41 -73 -58 -106 -18 -33 -44 -78
-59 -100 -15 -22 -47 -76 -70 -120 -24 -44 -48 -87 -55 -95 -12 -15 -87 -144
-130 -225 -20 -37 -40 -72 -118 -203 -15 -26 -52 -92 -83 -147 -30 -55 -78
-138 -106 -185 -28 -47 -69 -116 -91 -155 -22 -38 -51 -87 -63 -107 -14 -22
-20 -40 -14 -43 6 -3 51 -16 100 -29 50 -12 92 -25 95 -28 3 -3 -13 -35 -35
-71 -23 -36 -43 -80 -46 -99 -6 -35 -5 -39 74 -184 l28 -51 -85 -7 c-47 -3
-98 -10 -113 -14 l-28 -7 60 -103 c33 -57 60 -107 60 -110 0 -4 11 -23 24 -42
12 -19 56 -93 96 -165 40 -71 83 -146 94 -166 55 -95 151 -260 180 -309 74
-125 151 -258 175 -305 14 -27 28 -52 31 -55 9 -8 112 -188 213 -370 16 -30
38 -67 49 -82 10 -14 18 -28 18 -31 0 -3 27 -51 60 -107 33 -56 60 -104 60
-106 0 -3 8 -17 19 -32 10 -15 36 -58 58 -97 22 -38 60 -104 84 -145 24 -41
53 -93 64 -115 20 -39 122 -214 154 -265 9 -14 21 -34 27 -45 50 -91 212 -375
304 -535 62 -107 121 -208 130 -225 9 -16 38 -65 64 -108 25 -43 46 -80 46
-82 0 -2 47 -84 90 -155 29 -49 131 -234 155 -280 15 -30 61 -110 102 -178 41
-68 78 -133 83 -145 6 -12 28 -51 49 -87 22 -36 49 -83 60 -105 11 -22 25 -47
30 -55 24 -35 111 -182 111 -186 0 -2 21 -38 46 -81 26 -43 58 -98 72 -123 38
-67 52 -92 155 -270 45 -78 93 -163 113 -198 26 -46 208 -365 282 -492 30 -52
65 -113 77 -135 76 -135 161 -284 240 -417 49 -84 97 -166 106 -183 8 -16 49
-86 89 -155 93 -160 136 -234 168 -289 61 -109 83 -147 92 -161 6 -8 14 -24
20 -35 5 -11 29 -54 54 -95 25 -41 68 -115 95 -165 71 -126 98 -171 137 -236
19 -31 34 -59 34 -62 0 -3 32 -56 70 -119 39 -62 78 -129 87 -148 10 -19 25
-46 34 -60 19 -28 30 -49 142 -250 44 -80 87 -157 96 -172 59 -99 113 -191
138 -238 17 -30 61 -107 98 -170 38 -63 96 -164 130 -225 64 -115 151 -263
191 -327 13 -21 24 -40 24 -42 0 -4 65 -119 99 -176 76 -126 131 -220 131
-225 0 -3 17 -34 39 -68 42 -67 102 -173 159 -277 31 -56 165 -287 192 -330 6
-8 21 -35 35 -60 14 -25 38 -66 53 -91 15 -26 49 -86 77 -135 27 -49 55 -98
62 -109 7 -11 15 -26 19 -34 23 -46 158 -278 169 -291 7 -8 23 -35 35 -60 13
-25 49 -89 81 -143 33 -54 59 -100 59 -104 0 -5 75 -133 127 -215 12 -21 23
-39 23 -42 0 -2 18 -34 40 -70 22 -36 40 -68 40 -71 0 -3 11 -24 26 -46 14
-22 33 -55 43 -72 10 -18 35 -63 57 -100 21 -38 53 -93 69 -122 17 -29 33 -56
36 -59 8 -8 8962 -15 11917 -9 l2544 5 -7 47 c-4 25 -13 61 -21 80 -26 63 -26
63 99 60 l112 -3 32 55 c18 30 36 61 40 69 34 66 63 98 63 70 0 -6 25 -35 55
-65 30 -30 55 -60 55 -66 0 -22 28 11 51 59 13 26 52 97 87 157 145 248 177
303 217 370 23 39 60 104 82 145 23 42 55 98 72 125 17 27 31 52 31 57 0 4 15
31 34 60 18 29 44 73 57 98 14 25 32 56 40 70 41 65 148 251 213 371 25 44
169 295 257 447 9 15 27 47 41 72 14 25 45 79 69 120 24 41 50 86 57 100 7 14
21 39 31 55 17 28 210 361 268 465 36 62 92 158 120 202 13 21 23 40 23 43 0
3 16 31 36 62 19 31 40 65 45 77 5 12 13 28 19 36 5 8 34 58 65 110 30 52 60
102 65 110 5 8 32 56 60 105 28 50 55 97 59 105 5 8 26 49 46 90 21 41 43 82
50 90 13 15 52 83 223 390 20 36 41 72 47 82 15 25 144 247 170 293 140 247
248 435 278 482 15 24 27 46 27 51 0 4 15 30 33 57 18 28 55 91 83 140 90 158
165 289 197 340 17 28 49 84 72 125 23 41 65 116 95 165 29 50 63 108 75 130
12 22 39 67 58 100 20 33 44 78 55 100 10 22 63 117 117 210 206 357 245 426
245 431 0 3 13 24 29 47 15 23 39 62 53 87 14 25 43 74 63 110 21 36 47 81 57
100 11 19 25 44 31 55 7 11 42 71 77 133 36 62 82 141 102 175 20 34 40 69 44
77 4 8 32 58 62 110 58 100 116 201 163 285 16 28 38 66 49 85 51 87 214 372
224 391 3 8 22 39 41 69 19 30 40 69 48 85 8 17 35 63 60 103 26 40 47 76 47
80 0 4 27 51 60 105 33 55 60 101 60 103 0 2 19 37 43 77 24 39 61 103 83 140
21 38 50 87 63 110 55 95 137 238 186 322 29 50 81 140 115 200 34 61 71 126
82 145 73 122 120 204 153 265 21 39 46 82 57 97 10 14 18 29 18 32 0 2 30 56
66 118 37 62 92 156 122 208 30 52 62 109 72 125 55 95 181 315 235 410 34 61
78 137 97 170 19 33 88 152 152 265 65 113 124 212 132 221 8 8 14 19 14 24 0
5 25 50 55 102 112 191 163 279 182 313 10 19 26 47 36 61 21 31 18 38 -41
139 -25 41 -56 95 -70 120 -13 25 -34 61 -47 80 -40 63 -105 170 -126 208 -40
70 -174 304 -231 400 -31 53 -62 106 -67 117 -6 11 -24 43 -41 70 -16 28 -51
88 -77 135 -45 83 -78 139 -198 344 -32 55 -68 116 -79 136 -12 20 -50 87 -86
149 -82 142 -111 193 -146 256 -14 27 -38 68 -53 90 -14 22 -34 56 -44 75 -10
19 -26 46 -35 60 -9 14 -26 43 -37 65 -29 53 -87 154 -170 295 -37 63 -93 158
-123 210 -91 158 -193 335 -312 540 -62 107 -120 209 -130 225 -10 17 -81 138
-157 270 -77 132 -154 264 -171 293 -18 29 -32 54 -32 56 0 2 -46 82 -102 177
-86 149 -157 272 -202 354 -6 11 -27 45 -47 75 -19 30 -55 91 -79 135 -56 103
-126 222 -154 260 -13 17 -36 55 -52 85 -17 30 -63 111 -104 180 -40 69 -82
143 -93 165 -11 22 -26 47 -33 55 -11 14 -55 89 -109 185 -12 22 -32 58 -45
80 -13 22 -34 60 -47 84 -12 24 -27 48 -32 55 -5 6 -18 27 -29 46 -10 19 -45
80 -77 135 -32 55 -72 125 -88 155 -17 30 -37 66 -46 80 -21 33 -31 49 -87
145 -26 44 -62 107 -82 140 -19 33 -44 76 -54 95 -11 19 -46 80 -78 135 -32
55 -82 143 -111 195 -29 52 -67 118 -84 145 -18 28 -47 77 -65 110 -18 33 -43
76 -55 95 -12 19 -39 64 -59 100 -20 36 -55 94 -76 130 -22 36 -65 110 -95
165 -31 55 -81 143 -112 195 -30 52 -66 115 -80 140 -14 25 -50 88 -80 140
-31 52 -74 127 -96 165 -22 39 -57 96 -76 127 -20 32 -48 79 -62 105 -14 27
-43 77 -64 113 -21 36 -48 83 -60 106 -13 22 -35 59 -49 82 -14 23 -26 44 -26
48 0 3 -30 56 -67 118 -76 128 -106 179 -213 366 -42 74 -134 230 -204 345
-70 116 -141 237 -158 270 -17 33 -41 74 -53 90 -12 17 -33 53 -47 80 -14 28
-49 84 -78 125 -28 41 -57 89 -64 105 -7 17 -29 51 -48 76 -20 25 -43 62 -52
81 -10 20 -25 44 -34 54 -10 11 -29 37 -42 59 -13 22 -30 46 -38 54 -7 7 -36
48 -64 90 -77 115 -250 339 -325 421 -12 14 -48 57 -80 95 -31 39 -63 75 -69
80 -7 6 -28 29 -47 52 -19 23 -70 72 -113 110 -43 37 -82 73 -87 80 -12 19
-155 113 -172 113 -8 0 -15 -6 -15 -12 0 -7 -15 -30 -33 -50 -46 -54 -97 -126
-97 -138 0 -5 -4 -10 -8 -10 -4 0 -27 -30 -51 -66 -41 -62 -44 -65 -74 -58
-18 3 -40 15 -50 25 -10 11 -24 19 -31 19 -7 0 -21 9 -30 19 -16 17 -31 19
-152 18 -74 -1 -130 0 -124 1 5 2 10 17 10 33 0 16 4 29 10 29 5 0 13 12 16
28 6 26 61 150 90 204 8 14 14 36 14 47 0 12 5 21 10 21 6 0 10 6 10 14 0 12
-188 14 -1247 15 -2997 3 -4770 8 -4780 14 -5 3 -1773 8 -3929 11 -3071 4
-3924 3 -3941 -7z"/>
<path d="M159241 16885 c-5 -5 -24 -40 -44 -76 -53 -98 -332 -582 -515 -894
-36 -60 -86 -148 -112 -195 -26 -47 -66 -115 -88 -153 -23 -37 -42 -70 -42
-73 0 -5 -95 -170 -171 -297 -16 -27 -29 -50 -29 -52 0 -1 -34 -60 -75 -130
-41 -69 -75 -128 -75 -129 0 -2 -39 -70 -86 -152 -98 -171 -261 -452 -275
-474 -4 -8 -32 -55 -60 -105 -28 -49 -78 -136 -110 -192 -33 -57 -87 -151
-120 -210 -34 -60 -80 -139 -103 -178 -23 -38 -44 -77 -48 -86 -3 -8 -24 -46
-47 -82 -23 -37 -41 -69 -41 -72 0 -2 -13 -24 -30 -48 -16 -25 -30 -48 -30
-52 0 -4 -22 -44 -49 -89 -26 -44 -76 -130 -111 -191 -34 -60 -77 -135 -95
-165 -40 -68 -215 -371 -245 -425 -12 -22 -53 -92 -90 -155 -37 -63 -96 -164
-130 -225 -35 -60 -86 -150 -115 -200 -28 -49 -65 -115 -82 -145 -16 -30 -48
-84 -69 -119 -21 -36 -57 -99 -79 -140 -23 -42 -58 -101 -78 -132 -20 -31 -37
-59 -37 -63 0 -4 -29 -55 -64 -114 -35 -59 -74 -126 -87 -149 -36 -64 -165
-286 -231 -396 -32 -55 -58 -102 -58 -106 0 -4 -18 -34 -39 -67 -22 -33 -68
-116 -104 -185 -36 -68 -89 -165 -118 -216 -83 -140 -90 -152 -142 -243 -27
-47 -67 -119 -89 -160 -22 -41 -55 -97 -73 -125 -18 -27 -46 -75 -62 -105 -37
-68 -150 -266 -215 -378 -26 -45 -48 -85 -48 -88 0 -3 -15 -29 -34 -57 -18
-29 -55 -92 -82 -140 -84 -151 -99 -178 -174 -307 -40 -69 -80 -138 -90 -155
-9 -16 -43 -75 -75 -130 -32 -55 -66 -113 -75 -130 -10 -16 -45 -76 -79 -133
-33 -57 -61 -105 -61 -106 0 -4 -85 -149 -111 -191 -15 -22 -35 -58 -46 -80
-21 -43 -29 -57 -118 -210 -55 -94 -131 -226 -215 -375 -20 -36 -50 -87 -67
-115 -16 -27 -48 -81 -69 -119 -76 -134 -90 -158 -170 -299 -45 -78 -91 -163
-102 -189 -11 -26 -34 -67 -50 -90 -16 -24 -34 -58 -40 -76 -6 -18 -19 -45
-29 -60 -29 -43 -195 -383 -253 -517 -11 -27 -30 -66 -41 -86 -10 -20 -19 -42
-19 -49 0 -11 -19 -57 -107 -264 -28 -66 -40 -103 -85 -281 -29 -114 -42 -181
-54 -286 -7 -55 -20 -49 176 -79 74 -11 147 -23 161 -26 26 -5 26 -7 32 -110
6 -103 7 -106 51 -178 26 -40 46 -76 46 -81 0 -5 7 -16 15 -25 14 -16 3 -18
-169 -30 -195 -14 -197 -14 -162 -59 17 -21 75 -123 87 -154 6 -15 14 -27 18
-27 4 0 15 -19 25 -42 10 -24 28 -56 40 -73 12 -16 27 -41 34 -55 7 -14 28
-52 47 -85 19 -33 46 -80 60 -105 14 -25 34 -58 44 -75 10 -16 28 -48 41 -70
12 -22 47 -81 76 -131 29 -50 57 -100 60 -110 4 -11 26 -48 49 -84 22 -36 44
-72 48 -80 4 -8 20 -36 35 -61 49 -83 167 -289 181 -317 8 -15 32 -54 54 -87
22 -33 47 -76 56 -95 9 -19 39 -72 66 -118 28 -46 66 -112 85 -146 19 -35 40
-70 46 -77 11 -14 78 -133 101 -179 7 -14 22 -38 33 -55 19 -29 36 -59 89
-156 13 -24 44 -77 68 -118 25 -41 54 -90 65 -110 71 -128 126 -223 155 -267
18 -29 37 -63 42 -75 6 -13 28 -53 50 -89 22 -36 56 -96 77 -135 20 -38 45
-81 54 -95 14 -20 142 -241 262 -450 11 -19 29 -50 40 -67 l20 -33 11894 0
11894 0 21 43 c12 23 45 80 73 127 29 47 64 110 80 140 15 30 36 64 45 75 9
11 25 38 36 60 11 22 31 58 44 80 14 22 37 63 51 90 15 28 60 106 100 175 40
69 86 150 103 180 42 78 131 227 167 280 16 25 30 49 30 54 0 5 6 17 14 25 8
9 25 35 38 58 68 121 171 298 207 357 17 26 31 54 31 61 0 7 6 18 14 24 8 7
24 31 35 54 12 23 40 71 62 107 22 36 49 84 59 107 10 23 34 59 53 80 18 21
49 67 67 103 19 36 59 108 91 160 31 52 101 172 154 265 115 200 276 481 313
545 14 25 45 77 69 117 23 39 43 75 43 78 0 4 14 27 30 52 17 24 30 46 30 48
0 3 21 39 46 82 25 43 60 103 77 133 16 30 46 80 66 110 40 63 70 113 107 184
22 43 26 60 26 155 2 235 -81 588 -202 863 -18 40 -49 111 -70 158 -21 47 -48
110 -61 140 -30 72 -321 648 -389 770 -29 52 -87 158 -130 235 -42 77 -87 158
-100 180 -13 22 -42 74 -65 115 -24 41 -65 113 -92 160 -153 260 -187 318
-209 359 -13 26 -29 53 -34 61 -17 27 -182 313 -213 370 -17 30 -50 87 -74
127 -23 39 -43 74 -43 77 0 3 -18 36 -41 72 -38 63 -128 219 -187 324 -13 25
-29 50 -34 56 -5 7 -19 31 -32 55 -21 41 -75 135 -96 169 -5 8 -44 76 -86 150
-43 74 -101 177 -131 227 -29 51 -53 96 -53 100 0 3 -6 14 -14 22 -7 9 -25 36
-38 61 -32 57 -89 155 -145 247 -23 40 -43 75 -43 78 0 2 -18 34 -40 70 -22
36 -40 67 -40 70 0 2 -34 61 -75 132 -42 70 -81 137 -87 148 -23 39 -73 128
-99 174 -14 25 -67 118 -118 206 -51 88 -102 176 -113 195 -11 19 -57 98 -101
175 -44 77 -90 157 -101 177 -12 20 -39 68 -62 105 -23 37 -61 103 -85 146
-24 43 -48 86 -54 95 -29 49 -146 255 -175 307 -18 33 -45 78 -59 100 -14 22
-32 54 -42 70 -69 127 -125 225 -144 255 -12 19 -46 78 -75 130 -62 112 -123
218 -161 280 -15 25 -40 69 -55 98 -33 61 -27 50 -124 212 -41 69 -82 141 -92
160 -10 19 -31 58 -48 85 -16 28 -41 70 -55 95 -14 25 -34 59 -44 75 -10 17
-47 82 -83 145 -36 63 -88 152 -114 198 -63 107 -58 98 -134 232 -35 63 -69
123 -75 132 -5 10 -48 84 -95 165 -46 82 -115 199 -152 261 -37 63 -68 116
-68 119 0 3 -20 36 -45 74 -25 38 -45 71 -45 75 0 7 -36 70 -205 364 -65 113
-126 219 -135 235 -9 17 -31 54 -49 83 -17 29 -31 55 -31 58 0 2 -27 49 -60
104 -33 55 -60 103 -60 106 0 4 -6 15 -14 23 -8 9 -31 47 -51 85 -20 38 -45
83 -55 100 -11 17 -38 65 -62 106 -23 41 -47 83 -53 92 -5 10 -55 95 -109 190
-93 162 -114 198 -162 273 -10 17 -30 53 -44 80 -15 28 -60 109 -102 180 -41
72 -117 202 -168 290 -51 88 -96 164 -100 169 -12 12 -14760 14 -14769 1z"/>
<path d="M144135 3859 c-209 -3 -1960 -7 -3891 -8 l-3510 -1 -45 -77 c-25 -43
-74 -127 -109 -188 -34 -60 -71 -122 -81 -137 -11 -15 -19 -29 -19 -32 0 -6
-229 -406 -281 -491 -10 -16 -42 -73 -71 -124 -50 -90 -73 -131 -127 -226 -13
-22 -38 -65 -56 -95 -17 -30 -51 -89 -75 -130 -23 -41 -88 -153 -144 -248 -55
-95 -108 -185 -116 -200 -8 -14 -33 -58 -56 -97 -22 -38 -56 -97 -74 -130 -18
-33 -59 -103 -90 -155 -31 -52 -67 -115 -80 -140 -13 -25 -38 -67 -56 -95 -17
-27 -43 -72 -58 -100 -15 -27 -43 -77 -63 -110 -19 -33 -48 -82 -63 -110 -25
-46 -159 -281 -180 -315 -5 -8 -51 -89 -101 -180 -51 -91 -107 -188 -124 -215
-17 -28 -43 -70 -57 -95 -14 -25 -40 -71 -57 -102 l-33 -58 9346 0 9346 0 -31
58 c-18 31 -39 68 -48 82 -9 14 -21 34 -27 45 -29 51 -85 146 -121 205 -22 36
-55 92 -73 125 -18 33 -54 96 -79 140 -65 113 -72 127 -105 187 -16 29 -32 55
-36 58 -3 3 -26 41 -50 85 -24 44 -65 116 -92 161 -26 45 -48 85 -48 90 0 5
-14 27 -30 48 -17 22 -30 43 -30 48 0 5 -11 25 -24 46 -30 48 -172 294 -177
307 -2 6 -34 60 -70 120 -36 61 -83 142 -104 180 -21 39 -50 88 -64 110 -14
22 -37 61 -51 88 -14 26 -47 84 -73 130 -120 204 -169 288 -216 372 -28 50
-62 108 -76 130 -13 22 -36 63 -50 90 -15 28 -42 73 -59 100 -18 28 -41 71
-52 97 -10 25 -29 59 -41 75 -22 26 -23 27 -23 6 0 -12 -6 -26 -14 -30 -11 -7
-55 -66 -111 -151 -5 -8 -22 -27 -37 -42 -16 -15 -28 -32 -28 -39 0 -20 -26
-12 -38 12 -27 52 -78 144 -92 163 -15 20 -76 60 -137 89 -33 15 -44 47 -23
60 6 3 10 13 10 21 0 16 47 131 81 197 10 22 19 56 19 76 0 36 -2 38 -42 50
-24 7 -51 17 -62 23 -24 12 -177 62 -236 76 -254 61 -374 81 -605 102 -337 30
-455 39 -595 45 -85 4 -168 9 -185 12 -113 18 -4177 27 -5130 12z"/>
<path d="M184015 3859 c-645 -32 -1042 -69 -1305 -121 -65 -13 -221 -57 -235
-67 -5 -4 -35 -13 -65 -20 -97 -22 -299 -116 -373 -174 -20 -16 -48 -48 -61
-70 -61 -107 -191 -336 -211 -372 -12 -22 -73 -128 -135 -235 -62 -107 -125
-217 -139 -245 -14 -27 -29 -52 -32 -55 -4 -3 -21 -32 -39 -65 -18 -33 -47
-82 -64 -110 -18 -27 -43 -70 -56 -95 -13 -25 -49 -88 -80 -140 -31 -52 -86
-146 -121 -208 -77 -136 -89 -156 -173 -302 -37 -63 -84 -151 -105 -195 -21
-44 -72 -136 -113 -205 -41 -69 -90 -154 -110 -190 -20 -36 -75 -132 -123
-215 -145 -248 -205 -354 -205 -360 0 -4 -16 -34 -36 -68 -95 -160 -195 -340
-191 -343 2 -2 4214 -3 9360 -2 l9357 3 -35 55 c-19 30 -39 64 -44 75 -5 11
-39 72 -76 135 -37 63 -97 168 -134 233 -36 65 -71 125 -76 135 -6 9 -31 52
-55 95 -25 43 -61 105 -80 137 -19 33 -73 126 -120 206 -47 81 -106 183 -132
228 -26 45 -70 122 -98 171 -28 50 -61 106 -72 125 -25 41 -130 225 -165 289
-13 24 -53 93 -88 153 -36 59 -65 110 -65 112 0 3 -21 40 -46 83 -62 103 -83
140 -110 189 -12 23 -33 59 -46 80 -13 22 -29 48 -35 59 -26 45 -184 316 -233
400 -29 50 -63 108 -75 130 -12 22 -75 132 -140 245 -65 113 -128 223 -140
245 -12 22 -31 56 -42 75 -11 19 -40 69 -63 110 -24 41 -50 81 -58 88 -13 10
-1257 12 -6186 11 -3394 -1 -6243 -6 -6331 -10z"/>
<path d="M52700 3790 c-1202 -4 -3049 -8 -4106 -9 l-1921 -1 -13 -27 c-8 -16
-23 -41 -33 -56 -11 -16 -30 -49 -44 -75 -28 -54 -140 -250 -165 -290 -9 -15
-29 -49 -44 -77 -14 -27 -35 -61 -45 -74 -11 -13 -19 -27 -19 -31 0 -4 -39
-74 -86 -156 -48 -82 -106 -184 -131 -227 -24 -43 -64 -111 -88 -152 -25 -40
-45 -77 -45 -82 0 -5 -20 -41 -44 -80 -24 -40 -57 -96 -72 -125 -16 -29 -36
-64 -45 -78 -9 -14 -43 -71 -75 -128 -33 -57 -67 -116 -76 -130 -9 -15 -33
-58 -54 -97 -57 -107 -75 -139 -89 -155 -7 -8 -32 -51 -55 -95 -23 -44 -48
-87 -55 -95 -14 -17 -113 -199 -134 -245 -7 -16 -17 -37 -22 -45 -5 -8 -21
-37 -35 -64 -14 -27 -41 -72 -59 -100 -18 -28 -65 -109 -105 -181 -61 -109
-130 -227 -171 -295 -5 -8 -14 -26 -19 -39 -6 -13 -20 -37 -31 -52 -11 -16
-41 -68 -66 -117 -25 -48 -54 -98 -64 -111 -11 -13 -19 -32 -19 -42 0 -9 -4
-19 -9 -21 -5 -1 -24 -28 -42 -58 -51 -87 -99 -172 -99 -176 0 -2 4176 -4
9280 -4 9273 0 9280 0 9280 20 0 11 -7 20 -15 20 -8 0 -15 9 -15 19 0 10 -6
21 -14 24 -15 6 -136 244 -136 269 0 9 7 18 15 22 8 3 15 12 15 20 0 8 9 31
19 53 11 21 32 65 46 98 15 33 41 88 57 122 l29 63 -53 95 c-89 159 -219 386
-262 458 -61 102 -93 158 -115 197 -59 110 -120 220 -142 255 -13 22 -31 52
-39 67 -8 15 -31 56 -51 90 -20 35 -46 81 -59 103 -21 38 -68 118 -114 195
-24 39 -34 57 -86 150 -20 36 -47 83 -61 105 -14 22 -29 47 -32 55 -4 8 -17
32 -30 52 -12 20 -44 76 -71 125 -27 48 -59 104 -71 123 -37 57 -105 178 -105
186 0 4 -11 21 -24 38 -13 17 -26 42 -31 56 -4 14 -27 59 -51 101 -24 42 -44
79 -44 83 0 5 -9 21 -20 36 -11 16 -59 97 -107 182 -48 84 -97 171 -110 193
-13 22 -30 54 -38 72 -8 17 -20 35 -27 40 -14 9 -3498 5 -3535 -4 -13 -3 -23
-10 -23 -15 0 -5 -19 -35 -43 -66 -23 -31 -50 -69 -59 -83 -9 -14 -23 -33 -30
-40 -23 -25 -58 -78 -58 -88 0 -5 -7 -11 -15 -15 -8 -3 -15 -12 -15 -19 0 -10
-8 -13 -24 -10 -13 3 -27 0 -31 -7 -5 -8 -10 -8 -21 0 -12 11 -218 9 -357 -2
-34 -3 -37 -1 -37 22 0 15 4 30 9 35 5 6 24 46 42 90 18 44 40 94 50 111 9 17
20 45 24 62 l7 32 -1005 0 c-552 0 -1078 2 -1168 4 -90 2 -1147 0 -2349 -4z"/>
<path d="M63360 241 c0 -7 -22 -42 -50 -77 -27 -35 -50 -67 -50 -72 0 -5 -13
-21 -30 -37 -54 -51 -46 -55 120 -55 83 0 150 3 150 6 0 3 -8 18 -18 32 -11
15 -26 41 -34 57 -46 89 -88 158 -88 146z"/>
</g>
</svg>
